<?xml version="1.0" encoding="UTF-8" standalone="no"?>
<!DOCTYPE svg PUBLIC "-//W3C//DTD SVG 1.1//EN"
 "http://www.w3.org/Graphics/SVG/1.1/DTD/svg11.dtd">
<!-- Generated by graphviz version 2.36.0 (20140111.2315)
 -->
<!-- Title: G Pages: 1 -->
<svg width="1112pt" height="2577pt"
 viewBox="0.00 0.00 1112.00 2577.00" xmlns="http://www.w3.org/2000/svg" xmlns:xlink="http://www.w3.org/1999/xlink">
<g id="graph0" class="graph" transform="scale(1 1) rotate(0) translate(4 2573)">
<title>G</title>
<polygon fill="white" stroke="none" points="-4,4 -4,-2573 1108,-2573 1108,4 -4,4"/>
<text text-anchor="middle" x="552" y="-2553.8" font-family="Times,serif" font-size="14.00">CharLstm_color</text>
<!-- n1 -->
<g id="node1" class="node"><title>n1</title>
<g id="a_node1"><a xlink:title="[...e/ubuntu/torch/install/share/lua/5.1/crnn/model/LSTM.lua]:46">
<ellipse fill="blue" stroke="black" cx="352" cy="-1430" rx="124.176" ry="37.4533"/>
<text text-anchor="middle" x="352" y="-1441.3" font-family="Times,serif" font-size="14.00">next_c[1] (1)</text>
<text text-anchor="start" x="272" y="-1426.3" font-family="Times,serif" font-size="14.00">module = nn.CAddTable</text>
<text text-anchor="middle" x="352" y="-1411.3" font-family="Times,serif" font-size="14.00">mapindex = {Node7,Node8}</text>
</a>
</g>
</g>
<!-- n2 -->
<g id="node2" class="node"><title>n2</title>
<g id="a_node2"><a xlink:title="[[C]]:&#45;1">
<ellipse fill="none" stroke="black" cx="423" cy="-38" rx="208.395" ry="37.4533"/>
<text text-anchor="middle" x="423" y="-49.3" font-family="Times,serif" font-size="14.00">Node2</text>
<text text-anchor="start" x="283.5" y="-34.3" font-family="Times,serif" font-size="14.00">input = {}</text>
<text text-anchor="middle" x="423" y="-19.3" font-family="Times,serif" font-size="14.00">mapindex = {Node1,Node3,Node4,Node5,Node6}</text>
</a>
</g>
</g>
<!-- n1&#45;&gt;n2 -->
<g id="edge1" class="edge"><title>n1&#45;&gt;n2</title>
<path fill="none" stroke="black" d="M350.54,-1392.51C349.065,-1352.42 347,-1286.14 347,-1229 347,-1229 347,-1229 347,-228 347,-175.998 372.073,-121.382 393.416,-84.3093"/>
<polygon fill="black" stroke="black" points="396.679,-85.6661 398.744,-75.2744 390.649,-82.1101 396.679,-85.6661"/>
</g>
<!-- n10 -->
<g id="node10" class="node"><title>n10</title>
<g id="a_node10"><a xlink:title="[...e/ubuntu/torch/install/share/lua/5.1/crnn/model/LSTM.lua]:50">
<ellipse fill="none" stroke="black" cx="459" cy="-1329" rx="84.2187" ry="26.7407"/>
<text text-anchor="middle" x="459" y="-1332.8" font-family="Times,serif" font-size="14.00">Node10</text>
<text text-anchor="middle" x="459" y="-1317.8" font-family="Times,serif" font-size="14.00">module = nn.Tanh</text>
</a>
</g>
</g>
<!-- n1&#45;&gt;n10 -->
<g id="edge20" class="edge"><title>n1&#45;&gt;n10</title>
<path fill="none" stroke="black" d="M389.724,-1394.1C401.164,-1383.51 413.66,-1371.95 424.851,-1361.6"/>
<polygon fill="black" stroke="black" points="427.397,-1364.01 432.36,-1354.65 422.643,-1358.87 427.397,-1364.01"/>
</g>
<!-- n3 -->
<g id="node3" class="node"><title>n3</title>
<g id="a_node3"><a xlink:title="[...e/ubuntu/torch/install/share/lua/5.1/crnn/model/LSTM.lua]:50">
<ellipse fill="blue" stroke="black" cx="524" cy="-1228" rx="128.54" ry="37.4533"/>
<text text-anchor="middle" x="524" y="-1239.3" font-family="Times,serif" font-size="14.00">next_h[1] (3)</text>
<text text-anchor="start" x="441" y="-1224.3" font-family="Times,serif" font-size="14.00">module = nn.CMulTable</text>
<text text-anchor="middle" x="524" y="-1209.3" font-family="Times,serif" font-size="14.00">mapindex = {Node9,Node10}</text>
</a>
</g>
</g>
<!-- n3&#45;&gt;n2 -->
<g id="edge2" class="edge"><title>n3&#45;&gt;n2</title>
<path fill="none" stroke="black" d="M455.516,-1196.2C437.921,-1185.23 420.681,-1171.22 409,-1154 376.756,-1106.46 385,-1084.44 385,-1027 385,-1027 385,-1027 385,-228 385,-178.535 397.665,-123.191 408.372,-85.243"/>
<polygon fill="black" stroke="black" points="411.773,-86.0815 411.185,-75.503 405.048,-84.1392 411.773,-86.0815"/>
</g>
<!-- n38 -->
<g id="node38" class="node"><title>n38</title>
<g id="a_node38"><a xlink:title="[...e/ubuntu/torch/install/share/lua/5.1/crnn/model/LSTM.lua]:33">
<ellipse fill="yellow" stroke="black" cx="557" cy="-1127" rx="138.389" ry="26.7407"/>
<text text-anchor="middle" x="557" y="-1130.8" font-family="Times,serif" font-size="14.00">i2h[2] (38)</text>
<text text-anchor="middle" x="557" y="-1115.8" font-family="Times,serif" font-size="14.00">module = nn.Linear(128 &#45;&gt; 512)</text>
</a>
</g>
</g>
<!-- n3&#45;&gt;n38 -->
<g id="edge51" class="edge"><title>n3&#45;&gt;n38</title>
<path fill="none" stroke="black" d="M536.194,-1190.42C539.129,-1181.61 542.259,-1172.22 545.177,-1163.47"/>
<polygon fill="black" stroke="black" points="548.517,-1164.52 548.359,-1153.92 541.876,-1162.3 548.517,-1164.52"/>
</g>
<!-- n4 -->
<g id="node4" class="node"><title>n4</title>
<g id="a_node4"><a xlink:title="[...e/ubuntu/torch/install/share/lua/5.1/crnn/model/LSTM.lua]:46">
<ellipse fill="blue" stroke="black" cx="646" cy="-532" rx="133.465" ry="37.4533"/>
<text text-anchor="middle" x="646" y="-543.3" font-family="Times,serif" font-size="14.00">next_c[2] (4)</text>
<text text-anchor="start" x="559.5" y="-528.3" font-family="Times,serif" font-size="14.00">module = nn.CAddTable</text>
<text text-anchor="middle" x="646" y="-513.3" font-family="Times,serif" font-size="14.00">mapindex = {Node11,Node12}</text>
</a>
</g>
</g>
<!-- n4&#45;&gt;n2 -->
<g id="edge3" class="edge"><title>n4&#45;&gt;n2</title>
<path fill="none" stroke="black" d="M676.852,-495.395C706.554,-457.367 747,-394.016 747,-331 747,-331 747,-331 747,-228 747,-171.859 739.498,-148.684 697,-112 670.544,-89.1637 637.69,-73.3791 604.021,-62.4914"/>
<polygon fill="black" stroke="black" points="604.619,-59.0132 594.032,-59.4082 602.555,-65.7018 604.619,-59.0132"/>
</g>
<!-- n14 -->
<g id="node14" class="node"><title>n14</title>
<g id="a_node14"><a xlink:title="[...e/ubuntu/torch/install/share/lua/5.1/crnn/model/LSTM.lua]:50">
<ellipse fill="none" stroke="black" cx="605" cy="-431" rx="84.2187" ry="26.7407"/>
<text text-anchor="middle" x="605" y="-434.8" font-family="Times,serif" font-size="14.00">Node14</text>
<text text-anchor="middle" x="605" y="-419.8" font-family="Times,serif" font-size="14.00">module = nn.Tanh</text>
</a>
</g>
</g>
<!-- n4&#45;&gt;n14 -->
<g id="edge26" class="edge"><title>n4&#45;&gt;n14</title>
<path fill="none" stroke="black" d="M630.966,-494.698C627.24,-485.701 623.254,-476.077 619.552,-467.137"/>
<polygon fill="black" stroke="black" points="622.731,-465.667 615.671,-457.767 616.264,-468.345 622.731,-465.667"/>
</g>
<!-- n5 -->
<g id="node5" class="node"><title>n5</title>
<g id="a_node5"><a xlink:title="[...e/ubuntu/torch/install/share/lua/5.1/crnn/model/LSTM.lua]:50">
<ellipse fill="blue" stroke="black" cx="585" cy="-330" rx="133.465" ry="37.4533"/>
<text text-anchor="middle" x="585" y="-341.3" font-family="Times,serif" font-size="14.00">next_h[2] (5)</text>
<text text-anchor="start" x="498.5" y="-326.3" font-family="Times,serif" font-size="14.00">module = nn.CMulTable</text>
<text text-anchor="middle" x="585" y="-311.3" font-family="Times,serif" font-size="14.00">mapindex = {Node13,Node14}</text>
</a>
</g>
</g>
<!-- n5&#45;&gt;n2 -->
<g id="edge4" class="edge"><title>n5&#45;&gt;n2</title>
<path fill="none" stroke="black" d="M497.669,-301.666C476.171,-290.811 455.476,-275.994 442,-256 407.934,-205.456 409.231,-132.542 414.867,-85.4596"/>
<polygon fill="black" stroke="black" points="418.339,-85.9013 416.165,-75.5318 411.398,-84.9935 418.339,-85.9013"/>
</g>
<!-- n15 -->
<g id="node15" class="node"><title>n15</title>
<g id="a_node15"><a xlink:title="[...e/ubuntu/torch/install/share/lua/5.1/crnn/model/LSTM.lua]:71">
<ellipse fill="none" stroke="black" cx="585" cy="-229" rx="133.465" ry="26.7407"/>
<text text-anchor="middle" x="585" y="-232.8" font-family="Times,serif" font-size="14.00">proj (15)</text>
<text text-anchor="middle" x="585" y="-217.8" font-family="Times,serif" font-size="14.00">module = nn.Linear(128 &#45;&gt; 65)</text>
</a>
</g>
</g>
<!-- n5&#45;&gt;n15 -->
<g id="edge27" class="edge"><title>n5&#45;&gt;n15</title>
<path fill="none" stroke="black" d="M585,-292.417C585,-283.802 585,-274.626 585,-266.035"/>
<polygon fill="black" stroke="black" points="588.5,-265.924 585,-255.924 581.5,-265.924 588.5,-265.924"/>
</g>
<!-- n6 -->
<g id="node6" class="node"><title>n6</title>
<g id="a_node6"><a xlink:title="[...e/ubuntu/torch/install/share/lua/5.1/crnn/model/LSTM.lua]:72">
<ellipse fill="hotpink" stroke="black" cx="575" cy="-139" rx="113.267" ry="26.7407"/>
<text text-anchor="middle" x="575" y="-142.8" font-family="Times,serif" font-size="14.00">logsoft (6)</text>
<text text-anchor="middle" x="575" y="-127.8" font-family="Times,serif" font-size="14.00">module = nn.LogSoftMax</text>
</a>
</g>
</g>
<!-- n6&#45;&gt;n2 -->
<g id="edge5" class="edge"><title>n6&#45;&gt;n2</title>
<path fill="none" stroke="black" d="M537.427,-113.528C521.788,-103.342 503.203,-91.2376 485.607,-79.7771"/>
<polygon fill="black" stroke="black" points="487.356,-76.7389 477.066,-74.2141 483.535,-82.6045 487.356,-76.7389"/>
</g>
<!-- n7 -->
<g id="node7" class="node"><title>n7</title>
<g id="a_node7"><a xlink:title="[...e/ubuntu/torch/install/share/lua/5.1/crnn/model/LSTM.lua]:47">
<ellipse fill="none" stroke="black" cx="133" cy="-1542" rx="133.465" ry="37.4533"/>
<text text-anchor="middle" x="133" y="-1553.3" font-family="Times,serif" font-size="14.00">Node7</text>
<text text-anchor="start" x="46.5" y="-1538.3" font-family="Times,serif" font-size="14.00">module = nn.CMulTable</text>
<text text-anchor="middle" x="133" y="-1523.3" font-family="Times,serif" font-size="14.00">mapindex = {Node16,Node17}</text>
</a>
</g>
</g>
<!-- n7&#45;&gt;n1 -->
<g id="edge6" class="edge"><title>n7&#45;&gt;n1</title>
<path fill="none" stroke="black" d="M196.638,-1509.04C222.848,-1495.87 253.337,-1480.56 280.329,-1467"/>
<polygon fill="black" stroke="black" points="281.973,-1470.09 289.338,-1462.47 278.831,-1463.83 281.973,-1470.09"/>
</g>
<!-- n8 -->
<g id="node8" class="node"><title>n8</title>
<g id="a_node8"><a xlink:title="[...e/ubuntu/torch/install/share/lua/5.1/crnn/model/LSTM.lua]:48">
<ellipse fill="none" stroke="black" cx="418" cy="-1542" rx="133.465" ry="37.4533"/>
<text text-anchor="middle" x="418" y="-1553.3" font-family="Times,serif" font-size="14.00">Node8</text>
<text text-anchor="start" x="331.5" y="-1538.3" font-family="Times,serif" font-size="14.00">module = nn.CMulTable</text>
<text text-anchor="middle" x="418" y="-1523.3" font-family="Times,serif" font-size="14.00">mapindex = {Node18,Node19}</text>
</a>
</g>
</g>
<!-- n8&#45;&gt;n1 -->
<g id="edge7" class="edge"><title>n8&#45;&gt;n1</title>
<path fill="none" stroke="black" d="M396.389,-1504.98C390.805,-1495.68 384.725,-1485.54 378.907,-1475.85"/>
<polygon fill="black" stroke="black" points="381.806,-1473.87 373.659,-1467.1 375.803,-1477.47 381.806,-1473.87"/>
</g>
<!-- n9 -->
<g id="node9" class="node"><title>n9</title>
<g id="a_node9"><a xlink:title="[...e/ubuntu/torch/install/share/lua/5.1/crnn/model/LSTM.lua]:41">
<ellipse fill="#00eeee" stroke="black" cx="589" cy="-1430" rx="93.0077" ry="26.7407"/>
<text text-anchor="middle" x="589" y="-1433.8" font-family="Times,serif" font-size="14.00">out_gate[1] (9)</text>
<text text-anchor="middle" x="589" y="-1418.8" font-family="Times,serif" font-size="14.00">module = nn.Narrow</text>
</a>
</g>
</g>
<!-- n9&#45;&gt;n3 -->
<g id="edge8" class="edge"><title>n9&#45;&gt;n3</title>
<path fill="none" stroke="black" d="M582.109,-1403.02C575.105,-1377.22 563.655,-1336.6 552,-1302 549.041,-1293.21 545.668,-1283.92 542.312,-1275.02"/>
<polygon fill="black" stroke="black" points="545.534,-1273.64 538.698,-1265.55 538.994,-1276.14 545.534,-1273.64"/>
</g>
<!-- n10&#45;&gt;n3 -->
<g id="edge9" class="edge"><title>n10&#45;&gt;n3</title>
<path fill="none" stroke="black" d="M475.739,-1302.51C481.558,-1293.64 488.266,-1283.43 494.794,-1273.48"/>
<polygon fill="black" stroke="black" points="497.896,-1275.14 500.459,-1264.85 492.045,-1271.29 497.896,-1275.14"/>
</g>
<!-- n11 -->
<g id="node11" class="node"><title>n11</title>
<g id="a_node11"><a xlink:title="[...e/ubuntu/torch/install/share/lua/5.1/crnn/model/LSTM.lua]:47">
<ellipse fill="none" stroke="black" cx="832" cy="-644" rx="133.465" ry="37.4533"/>
<text text-anchor="middle" x="832" y="-655.3" font-family="Times,serif" font-size="14.00">Node11</text>
<text text-anchor="start" x="745.5" y="-640.3" font-family="Times,serif" font-size="14.00">module = nn.CMulTable</text>
<text text-anchor="middle" x="832" y="-625.3" font-family="Times,serif" font-size="14.00">mapindex = {Node21,Node22}</text>
</a>
</g>
</g>
<!-- n11&#45;&gt;n4 -->
<g id="edge10" class="edge"><title>n11&#45;&gt;n4</title>
<path fill="none" stroke="black" d="M775.942,-609.847C755.353,-597.671 731.88,-583.789 710.601,-571.205"/>
<polygon fill="black" stroke="black" points="712.333,-568.163 701.944,-566.085 708.769,-574.188 712.333,-568.163"/>
</g>
<!-- n12 -->
<g id="node12" class="node"><title>n12</title>
<g id="a_node12"><a xlink:title="[...e/ubuntu/torch/install/share/lua/5.1/crnn/model/LSTM.lua]:48">
<ellipse fill="none" stroke="black" cx="547" cy="-644" rx="133.465" ry="37.4533"/>
<text text-anchor="middle" x="547" y="-655.3" font-family="Times,serif" font-size="14.00">Node12</text>
<text text-anchor="start" x="460.5" y="-640.3" font-family="Times,serif" font-size="14.00">module = nn.CMulTable</text>
<text text-anchor="middle" x="547" y="-625.3" font-family="Times,serif" font-size="14.00">mapindex = {Node23,Node24}</text>
</a>
</g>
</g>
<!-- n12&#45;&gt;n4 -->
<g id="edge11" class="edge"><title>n12&#45;&gt;n4</title>
<path fill="none" stroke="black" d="M578.869,-607.59C587.875,-597.583 597.777,-586.581 607.145,-576.173"/>
<polygon fill="black" stroke="black" points="609.763,-578.495 613.851,-568.721 604.56,-573.813 609.763,-578.495"/>
</g>
<!-- n13 -->
<g id="node13" class="node"><title>n13</title>
<g id="a_node13"><a xlink:title="[...e/ubuntu/torch/install/share/lua/5.1/crnn/model/LSTM.lua]:41">
<ellipse fill="#00eeee" stroke="black" cx="973" cy="-532" rx="93.0077" ry="26.7407"/>
<text text-anchor="middle" x="973" y="-535.8" font-family="Times,serif" font-size="14.00">out_gate[2] (13)</text>
<text text-anchor="middle" x="973" y="-520.8" font-family="Times,serif" font-size="14.00">module = nn.Narrow</text>
</a>
</g>
</g>
<!-- n13&#45;&gt;n5 -->
<g id="edge12" class="edge"><title>n13&#45;&gt;n5</title>
<path fill="none" stroke="black" d="M928.869,-508.252C862.505,-474.044 736.315,-408.997 656.644,-367.93"/>
<polygon fill="black" stroke="black" points="658.138,-364.763 647.646,-363.292 654.931,-370.985 658.138,-364.763"/>
</g>
<!-- n14&#45;&gt;n5 -->
<g id="edge13" class="edge"><title>n14&#45;&gt;n5</title>
<path fill="none" stroke="black" d="M599.745,-403.989C598.114,-395.914 596.263,-386.753 594.438,-377.716"/>
<polygon fill="black" stroke="black" points="597.811,-376.74 592.4,-367.631 590.95,-378.126 597.811,-376.74"/>
</g>
<!-- n15&#45;&gt;n6 -->
<g id="edge14" class="edge"><title>n15&#45;&gt;n6</title>
<path fill="none" stroke="black" d="M582.054,-202.073C581.126,-193.911 580.085,-184.744 579.092,-176.011"/>
<polygon fill="black" stroke="black" points="582.567,-175.587 577.96,-166.046 575.611,-176.377 582.567,-175.587"/>
</g>
<!-- n16 -->
<g id="node16" class="node"><title>n16</title>
<g id="a_node16"><a xlink:title="[...e/ubuntu/torch/install/share/lua/5.1/crnn/model/LSTM.lua]:40">
<ellipse fill="darkorchid" stroke="black" cx="273" cy="-1643" rx="93.0077" ry="26.7407"/>
<text text-anchor="middle" x="273" y="-1646.8" font-family="Times,serif" font-size="14.00">forget_gate[1] (16)</text>
<text text-anchor="middle" x="273" y="-1631.8" font-family="Times,serif" font-size="14.00">module = nn.Narrow</text>
</a>
</g>
</g>
<!-- n16&#45;&gt;n7 -->
<g id="edge15" class="edge"><title>n16&#45;&gt;n7</title>
<path fill="none" stroke="black" d="M238.752,-1617.78C224,-1607.35 206.352,-1594.87 189.739,-1583.12"/>
<polygon fill="black" stroke="black" points="191.352,-1579.98 181.166,-1577.06 187.31,-1585.69 191.352,-1579.98"/>
</g>
<!-- n17 -->
<g id="node17" class="node"><title>n17</title>
<g id="a_node17"><a xlink:title="[...e/ubuntu/torch/install/share/lua/5.1/crnn/model/LSTM.lua]:11">
<ellipse fill="blue" stroke="black" cx="117" cy="-1924" rx="94.0678" ry="26.7407"/>
<text text-anchor="middle" x="117" y="-1927.8" font-family="Times,serif" font-size="14.00">prev_c[1] (17)</text>
<text text-anchor="middle" x="117" y="-1912.8" font-family="Times,serif" font-size="14.00">module = nn.Identity</text>
</a>
</g>
</g>
<!-- n17&#45;&gt;n7 -->
<g id="edge16" class="edge"><title>n17&#45;&gt;n7</title>
<path fill="none" stroke="black" d="M118.1,-1896.88C120.769,-1833.49 127.619,-1670.79 131.022,-1589.99"/>
<polygon fill="black" stroke="black" points="134.534,-1589.75 131.458,-1579.62 127.541,-1589.46 134.534,-1589.75"/>
</g>
<!-- n18 -->
<g id="node18" class="node"><title>n18</title>
<g id="a_node18"><a xlink:title="[...e/ubuntu/torch/install/share/lua/5.1/crnn/model/LSTM.lua]:39">
<ellipse fill="aquamarine" stroke="black" cx="478" cy="-1643" rx="93.0077" ry="26.7407"/>
<text text-anchor="middle" x="478" y="-1646.8" font-family="Times,serif" font-size="14.00">in_gate[1] (18)</text>
<text text-anchor="middle" x="478" y="-1631.8" font-family="Times,serif" font-size="14.00">module = nn.Narrow</text>
</a>
</g>
</g>
<!-- n18&#45;&gt;n8 -->
<g id="edge17" class="edge"><title>n18&#45;&gt;n8</title>
<path fill="none" stroke="black" d="M462.392,-1616.25C457.129,-1607.56 451.09,-1597.6 445.197,-1587.88"/>
<polygon fill="black" stroke="black" points="448.029,-1585.8 439.853,-1579.06 442.043,-1589.42 448.029,-1585.8"/>
</g>
<!-- n19 -->
<g id="node19" class="node"><title>n19</title>
<g id="a_node19"><a xlink:title="[...e/ubuntu/torch/install/share/lua/5.1/crnn/model/LSTM.lua]:44">
<ellipse fill="gold" stroke="black" cx="242" cy="-1733" rx="91.3254" ry="26.7407"/>
<text text-anchor="middle" x="242" y="-1736.8" font-family="Times,serif" font-size="14.00">in_transform[1] (19)</text>
<text text-anchor="middle" x="242" y="-1721.8" font-family="Times,serif" font-size="14.00">module = nn.Tanh</text>
</a>
</g>
</g>
<!-- n19&#45;&gt;n8 -->
<g id="edge18" class="edge"><title>n19&#45;&gt;n8</title>
<path fill="none" stroke="black" d="M203.704,-1708.48C190.828,-1698.38 177.973,-1685.35 171,-1670 161.072,-1648.15 156.634,-1635.23 171,-1616 175.638,-1609.79 247.689,-1588.9 312.779,-1571.05"/>
<polygon fill="black" stroke="black" points="314.015,-1574.34 322.738,-1568.33 312.169,-1567.59 314.015,-1574.34"/>
</g>
<!-- n20 -->
<g id="node20" class="node"><title>n20</title>
<g id="a_node20"><a xlink:title="[...e/ubuntu/torch/install/share/lua/5.1/crnn/model/LSTM.lua]:38">
<ellipse fill="lightseagreen" stroke="black" cx="461" cy="-1733" rx="101.174" ry="26.7407"/>
<text text-anchor="middle" x="461" y="-1736.8" font-family="Times,serif" font-size="14.00">sigmoid_chunk[1] (20)</text>
<text text-anchor="middle" x="461" y="-1721.8" font-family="Times,serif" font-size="14.00">module = nn.Sigmoid</text>
</a>
</g>
</g>
<!-- n20&#45;&gt;n9 -->
<g id="edge19" class="edge"><title>n20&#45;&gt;n9</title>
<path fill="none" stroke="black" d="M526.775,-1712.49C547.288,-1703.04 567.732,-1689.39 580,-1670 619.481,-1607.59 608.449,-1516.55 598.034,-1466.77"/>
<polygon fill="black" stroke="black" points="601.407,-1465.82 595.839,-1456.8 594.571,-1467.32 601.407,-1465.82"/>
</g>
<!-- n20&#45;&gt;n16 -->
<g id="edge28" class="edge"><title>n20&#45;&gt;n16</title>
<path fill="none" stroke="black" d="M412.585,-1709.34C387.282,-1697.49 356.164,-1682.93 329.735,-1670.56"/>
<polygon fill="black" stroke="black" points="331.141,-1667.35 320.6,-1666.28 328.173,-1673.69 331.141,-1667.35"/>
</g>
<!-- n20&#45;&gt;n18 -->
<g id="edge30" class="edge"><title>n20&#45;&gt;n18</title>
<path fill="none" stroke="black" d="M466.009,-1706.07C467.585,-1697.91 469.356,-1688.74 471.043,-1680.01"/>
<polygon fill="black" stroke="black" points="474.508,-1680.53 472.968,-1670.05 467.635,-1679.2 474.508,-1680.53"/>
</g>
<!-- n21 -->
<g id="node21" class="node"><title>n21</title>
<g id="a_node21"><a xlink:title="[...e/ubuntu/torch/install/share/lua/5.1/crnn/model/LSTM.lua]:40">
<ellipse fill="darkorchid" stroke="black" cx="852" cy="-745" rx="93.0077" ry="26.7407"/>
<text text-anchor="middle" x="852" y="-748.8" font-family="Times,serif" font-size="14.00">forget_gate[2] (21)</text>
<text text-anchor="middle" x="852" y="-733.8" font-family="Times,serif" font-size="14.00">module = nn.Narrow</text>
</a>
</g>
</g>
<!-- n21&#45;&gt;n11 -->
<g id="edge21" class="edge"><title>n21&#45;&gt;n11</title>
<path fill="none" stroke="black" d="M846.745,-717.989C845.114,-709.914 843.263,-700.753 841.438,-691.716"/>
<polygon fill="black" stroke="black" points="844.811,-690.74 839.4,-681.631 837.95,-692.126 844.811,-690.74"/>
</g>
<!-- n22 -->
<g id="node22" class="node"><title>n22</title>
<g id="a_node22"><a xlink:title="[...e/ubuntu/torch/install/share/lua/5.1/crnn/model/LSTM.lua]:11">
<ellipse fill="blue" stroke="black" cx="1010" cy="-2025" rx="94.0678" ry="26.7407"/>
<text text-anchor="middle" x="1010" y="-2028.8" font-family="Times,serif" font-size="14.00">prev_c[2] (22)</text>
<text text-anchor="middle" x="1010" y="-2013.8" font-family="Times,serif" font-size="14.00">module = nn.Identity</text>
</a>
</g>
</g>
<!-- n22&#45;&gt;n11 -->
<g id="edge22" class="edge"><title>n22&#45;&gt;n11</title>
<path fill="none" stroke="black" d="M1014.72,-1997.89C1021.18,-1959.8 1032,-1886.7 1032,-1824 1032,-1824 1032,-1824 1032,-834 1032,-764.165 966.789,-712.459 910.839,-680.948"/>
<polygon fill="black" stroke="black" points="912.4,-677.812 901.95,-676.064 909.029,-683.947 912.4,-677.812"/>
</g>
<!-- n23 -->
<g id="node23" class="node"><title>n23</title>
<g id="a_node23"><a xlink:title="[...e/ubuntu/torch/install/share/lua/5.1/crnn/model/LSTM.lua]:39">
<ellipse fill="aquamarine" stroke="black" cx="647" cy="-745" rx="93.0077" ry="26.7407"/>
<text text-anchor="middle" x="647" y="-748.8" font-family="Times,serif" font-size="14.00">in_gate[2] (23)</text>
<text text-anchor="middle" x="647" y="-733.8" font-family="Times,serif" font-size="14.00">module = nn.Narrow</text>
</a>
</g>
</g>
<!-- n23&#45;&gt;n12 -->
<g id="edge23" class="edge"><title>n23&#45;&gt;n12</title>
<path fill="none" stroke="black" d="M621.766,-719.018C612.176,-709.524 600.959,-698.419 590.174,-687.743"/>
<polygon fill="black" stroke="black" points="592.371,-684.992 582.802,-680.444 587.446,-689.967 592.371,-684.992"/>
</g>
<!-- n24 -->
<g id="node24" class="node"><title>n24</title>
<g id="a_node24"><a xlink:title="[...e/ubuntu/torch/install/share/lua/5.1/crnn/model/LSTM.lua]:44">
<ellipse fill="gold" stroke="black" cx="534" cy="-835" rx="91.3254" ry="26.7407"/>
<text text-anchor="middle" x="534" y="-838.8" font-family="Times,serif" font-size="14.00">in_transform[2] (24)</text>
<text text-anchor="middle" x="534" y="-823.8" font-family="Times,serif" font-size="14.00">module = nn.Tanh</text>
</a>
</g>
</g>
<!-- n24&#45;&gt;n12 -->
<g id="edge24" class="edge"><title>n24&#45;&gt;n12</title>
<path fill="none" stroke="black" d="M535.78,-808.117C537.84,-778.176 541.271,-728.296 543.797,-691.562"/>
<polygon fill="black" stroke="black" points="547.29,-691.794 544.484,-681.578 540.306,-691.314 547.29,-691.794"/>
</g>
<!-- n25 -->
<g id="node25" class="node"><title>n25</title>
<g id="a_node25"><a xlink:title="[...e/ubuntu/torch/install/share/lua/5.1/crnn/model/LSTM.lua]:38">
<ellipse fill="lightseagreen" stroke="black" cx="837" cy="-835" rx="101.174" ry="26.7407"/>
<text text-anchor="middle" x="837" y="-838.8" font-family="Times,serif" font-size="14.00">sigmoid_chunk[2] (25)</text>
<text text-anchor="middle" x="837" y="-823.8" font-family="Times,serif" font-size="14.00">module = nn.Sigmoid</text>
</a>
</g>
</g>
<!-- n25&#45;&gt;n13 -->
<g id="edge25" class="edge"><title>n25&#45;&gt;n13</title>
<path fill="none" stroke="black" d="M898.564,-813.505C918.958,-803.88 939.998,-790.377 954,-772 999.077,-712.838 990.483,-619.823 981.181,-569.039"/>
<polygon fill="black" stroke="black" points="984.607,-568.319 979.266,-559.169 977.735,-569.653 984.607,-568.319"/>
</g>
<!-- n25&#45;&gt;n21 -->
<g id="edge33" class="edge"><title>n25&#45;&gt;n21</title>
<path fill="none" stroke="black" d="M841.419,-808.073C842.811,-799.911 844.373,-790.744 845.862,-782.011"/>
<polygon fill="black" stroke="black" points="849.33,-782.492 847.56,-772.046 842.43,-781.315 849.33,-782.492"/>
</g>
<!-- n25&#45;&gt;n23 -->
<g id="edge35" class="edge"><title>n25&#45;&gt;n23</title>
<path fill="none" stroke="black" d="M788.07,-811.338C762.399,-799.448 730.807,-784.816 704.031,-772.414"/>
<polygon fill="black" stroke="black" points="705.323,-769.156 694.778,-768.129 702.381,-775.508 705.323,-769.156"/>
</g>
<!-- n26 -->
<g id="node26" class="node"><title>n26</title>
<g id="a_node26"><a xlink:title="[[C]]:&#45;1&#45;2">
<ellipse fill="none" stroke="black" cx="142" cy="-2328" rx="70.5656" ry="37.4533"/>
<text text-anchor="middle" x="142" y="-2339.3" font-family="Times,serif" font-size="14.00">Node26</text>
<text text-anchor="start" x="100" y="-2324.3" font-family="Times,serif" font-size="14.00">input = {}</text>
<text text-anchor="middle" x="142" y="-2309.3" font-family="Times,serif" font-size="14.00">selectindex = 2</text>
</a>
</g>
</g>
<!-- n26&#45;&gt;n17 -->
<g id="edge29" class="edge"><title>n26&#45;&gt;n17</title>
<path fill="none" stroke="black" d="M139.715,-2290.26C134.943,-2213.53 123.971,-2037.09 119.239,-1961"/>
<polygon fill="black" stroke="black" points="122.728,-1960.72 118.614,-1950.95 115.741,-1961.15 122.728,-1960.72"/>
</g>
<!-- n27 -->
<g id="node27" class="node"><title>n27</title>
<g id="a_node27"><a xlink:title="[...e/ubuntu/torch/install/share/lua/5.1/crnn/model/LSTM.lua]:43">
<ellipse fill="none" stroke="black" cx="246" cy="-1823" rx="93.0077" ry="26.7407"/>
<text text-anchor="middle" x="246" y="-1826.8" font-family="Times,serif" font-size="14.00">Node27</text>
<text text-anchor="middle" x="246" y="-1811.8" font-family="Times,serif" font-size="14.00">module = nn.Narrow</text>
</a>
</g>
</g>
<!-- n27&#45;&gt;n19 -->
<g id="edge31" class="edge"><title>n27&#45;&gt;n19</title>
<path fill="none" stroke="black" d="M244.822,-1796.07C244.455,-1788 244.043,-1778.94 243.65,-1770.3"/>
<polygon fill="black" stroke="black" points="247.134,-1769.88 243.184,-1760.05 240.142,-1770.19 247.134,-1769.88"/>
</g>
<!-- n28 -->
<g id="node28" class="node"><title>n28</title>
<g id="a_node28"><a xlink:title="[...e/ubuntu/torch/install/share/lua/5.1/crnn/model/LSTM.lua]:37">
<ellipse fill="none" stroke="black" cx="454" cy="-1823" rx="93.0077" ry="26.7407"/>
<text text-anchor="middle" x="454" y="-1826.8" font-family="Times,serif" font-size="14.00">Node28</text>
<text text-anchor="middle" x="454" y="-1811.8" font-family="Times,serif" font-size="14.00">module = nn.Narrow</text>
</a>
</g>
</g>
<!-- n28&#45;&gt;n20 -->
<g id="edge32" class="edge"><title>n28&#45;&gt;n20</title>
<path fill="none" stroke="black" d="M456.062,-1796.07C456.705,-1788 457.425,-1778.94 458.113,-1770.3"/>
<polygon fill="black" stroke="black" points="461.624,-1770.29 458.928,-1760.05 454.646,-1769.74 461.624,-1770.29"/>
</g>
<!-- n29 -->
<g id="node29" class="node"><title>n29</title>
<g id="a_node29"><a xlink:title="[[C]]:&#45;1&#45;4">
<ellipse fill="none" stroke="black" cx="924" cy="-2126" rx="70.5656" ry="37.4533"/>
<text text-anchor="middle" x="924" y="-2137.3" font-family="Times,serif" font-size="14.00">Node29</text>
<text text-anchor="start" x="882" y="-2122.3" font-family="Times,serif" font-size="14.00">input = {}</text>
<text text-anchor="middle" x="924" y="-2107.3" font-family="Times,serif" font-size="14.00">selectindex = 4</text>
</a>
</g>
</g>
<!-- n29&#45;&gt;n22 -->
<g id="edge34" class="edge"><title>n29&#45;&gt;n22</title>
<path fill="none" stroke="black" d="M952.876,-2091.76C962.053,-2081.2 972.195,-2069.52 981.356,-2058.97"/>
<polygon fill="black" stroke="black" points="984.221,-2061.01 988.137,-2051.17 978.937,-2056.42 984.221,-2061.01"/>
</g>
<!-- n30 -->
<g id="node30" class="node"><title>n30</title>
<g id="a_node30"><a xlink:title="[...e/ubuntu/torch/install/share/lua/5.1/crnn/model/LSTM.lua]:43">
<ellipse fill="none" stroke="black" cx="564" cy="-925" rx="93.0077" ry="26.7407"/>
<text text-anchor="middle" x="564" y="-928.8" font-family="Times,serif" font-size="14.00">Node30</text>
<text text-anchor="middle" x="564" y="-913.8" font-family="Times,serif" font-size="14.00">module = nn.Narrow</text>
</a>
</g>
</g>
<!-- n30&#45;&gt;n24 -->
<g id="edge36" class="edge"><title>n30&#45;&gt;n24</title>
<path fill="none" stroke="black" d="M555.161,-898.073C552.348,-889.822 549.186,-880.544 546.18,-871.727"/>
<polygon fill="black" stroke="black" points="549.419,-870.381 542.879,-862.046 542.793,-872.64 549.419,-870.381"/>
</g>
<!-- n31 -->
<g id="node31" class="node"><title>n31</title>
<g id="a_node31"><a xlink:title="[...e/ubuntu/torch/install/share/lua/5.1/crnn/model/LSTM.lua]:37">
<ellipse fill="none" stroke="black" cx="777" cy="-925" rx="93.0077" ry="26.7407"/>
<text text-anchor="middle" x="777" y="-928.8" font-family="Times,serif" font-size="14.00">Node31</text>
<text text-anchor="middle" x="777" y="-913.8" font-family="Times,serif" font-size="14.00">module = nn.Narrow</text>
</a>
</g>
</g>
<!-- n31&#45;&gt;n25 -->
<g id="edge37" class="edge"><title>n31&#45;&gt;n25</title>
<path fill="none" stroke="black" d="M794.354,-898.547C800.396,-889.686 807.275,-879.596 813.718,-870.146"/>
<polygon fill="black" stroke="black" points="816.735,-871.935 819.477,-861.701 810.951,-867.992 816.735,-871.935"/>
</g>
<!-- n32 -->
<g id="node32" class="node"><title>n32</title>
<g id="a_node32"><a xlink:title="[[C]]:&#45;1&#45;mnode">
<ellipse fill="none" stroke="black" cx="532" cy="-2429" rx="80.415" ry="26.7407"/>
<text text-anchor="middle" x="532" y="-2432.8" font-family="Times,serif" font-size="14.00">Node32</text>
<text text-anchor="middle" x="532" y="-2417.8" font-family="Times,serif" font-size="14.00">nSplitOutputs = 5</text>
</a>
</g>
</g>
<!-- n32&#45;&gt;n26 -->
<g id="edge38" class="edge"><title>n32&#45;&gt;n26</title>
<path fill="none" stroke="black" d="M466.105,-2413.46C412.767,-2401.46 335.799,-2383.59 269,-2366 250.552,-2361.14 230.703,-2355.54 212.306,-2350.19"/>
<polygon fill="black" stroke="black" points="213.125,-2346.78 202.544,-2347.34 211.16,-2353.5 213.125,-2346.78"/>
</g>
<!-- n32&#45;&gt;n29 -->
<g id="edge41" class="edge"><title>n32&#45;&gt;n29</title>
<path fill="none" stroke="black" d="M612.006,-2425.88C667.996,-2420.66 741.818,-2405.87 794,-2366 857.95,-2317.13 894.363,-2227.43 911.565,-2172.91"/>
<polygon fill="black" stroke="black" points="914.97,-2173.74 914.556,-2163.15 908.278,-2171.69 914.97,-2173.74"/>
</g>
<!-- n44 -->
<g id="node44" class="node"><title>n44</title>
<g id="a_node44"><a xlink:title="[[C]]:&#45;1&#45;3">
<ellipse fill="none" stroke="black" cx="532" cy="-2328" rx="70.5656" ry="37.4533"/>
<text text-anchor="middle" x="532" y="-2339.3" font-family="Times,serif" font-size="14.00">Node44</text>
<text text-anchor="start" x="490" y="-2324.3" font-family="Times,serif" font-size="14.00">input = {}</text>
<text text-anchor="middle" x="532" y="-2309.3" font-family="Times,serif" font-size="14.00">selectindex = 3</text>
</a>
</g>
</g>
<!-- n32&#45;&gt;n44 -->
<g id="edge57" class="edge"><title>n32&#45;&gt;n44</title>
<path fill="none" stroke="black" d="M532,-2401.99C532,-2393.91 532,-2384.75 532,-2375.72"/>
<polygon fill="black" stroke="black" points="535.5,-2375.63 532,-2365.63 528.5,-2375.63 535.5,-2375.63"/>
</g>
<!-- n45 -->
<g id="node45" class="node"><title>n45</title>
<g id="a_node45"><a xlink:title="[[C]]:&#45;1&#45;5">
<ellipse fill="none" stroke="black" cx="715" cy="-2328" rx="70.5656" ry="37.4533"/>
<text text-anchor="middle" x="715" y="-2339.3" font-family="Times,serif" font-size="14.00">Node45</text>
<text text-anchor="start" x="673" y="-2324.3" font-family="Times,serif" font-size="14.00">input = {}</text>
<text text-anchor="middle" x="715" y="-2309.3" font-family="Times,serif" font-size="14.00">selectindex = 5</text>
</a>
</g>
</g>
<!-- n32&#45;&gt;n45 -->
<g id="edge58" class="edge"><title>n32&#45;&gt;n45</title>
<path fill="none" stroke="black" d="M573.069,-2405.78C597.874,-2392.36 629.871,-2375.05 657.203,-2360.27"/>
<polygon fill="black" stroke="black" points="659.147,-2363.2 666.277,-2355.36 655.816,-2357.04 659.147,-2363.2"/>
</g>
<!-- n46 -->
<g id="node46" class="node"><title>n46</title>
<g id="a_node46"><a xlink:title="[[C]]:&#45;1&#45;1">
<ellipse fill="none" stroke="black" cx="349" cy="-2328" rx="70.5656" ry="37.4533"/>
<text text-anchor="middle" x="349" y="-2339.3" font-family="Times,serif" font-size="14.00">Node46</text>
<text text-anchor="start" x="307" y="-2324.3" font-family="Times,serif" font-size="14.00">input = {}</text>
<text text-anchor="middle" x="349" y="-2309.3" font-family="Times,serif" font-size="14.00">selectindex = 1</text>
</a>
</g>
</g>
<!-- n32&#45;&gt;n46 -->
<g id="edge59" class="edge"><title>n32&#45;&gt;n46</title>
<path fill="none" stroke="black" d="M490.931,-2405.78C466.126,-2392.36 434.129,-2375.05 406.797,-2360.27"/>
<polygon fill="black" stroke="black" points="408.184,-2357.04 397.723,-2355.36 404.853,-2363.2 408.184,-2357.04"/>
</g>
<!-- n33 -->
<g id="node33" class="node"><title>n33</title>
<g id="a_node33"><a xlink:title="[...e/ubuntu/torch/install/share/lua/5.1/crnn/model/LSTM.lua]:35">
<ellipse fill="lightseagreen" stroke="black" cx="395" cy="-1924" rx="133.465" ry="37.4533"/>
<text text-anchor="middle" x="395" y="-1935.3" font-family="Times,serif" font-size="14.00">all_input_sums[1] (33)</text>
<text text-anchor="start" x="308.5" y="-1920.3" font-family="Times,serif" font-size="14.00">module = nn.CAddTable</text>
<text text-anchor="middle" x="395" y="-1905.3" font-family="Times,serif" font-size="14.00">mapindex = {Node36,Node37}</text>
</a>
</g>
</g>
<!-- n33&#45;&gt;n27 -->
<g id="edge39" class="edge"><title>n33&#45;&gt;n27</title>
<path fill="none" stroke="black" d="M344.139,-1889.21C326.766,-1877.66 307.479,-1864.85 290.634,-1853.66"/>
<polygon fill="black" stroke="black" points="292.336,-1850.59 282.07,-1847.97 288.462,-1856.42 292.336,-1850.59"/>
</g>
<!-- n33&#45;&gt;n28 -->
<g id="edge40" class="edge"><title>n33&#45;&gt;n28</title>
<path fill="none" stroke="black" d="M416.467,-1886.98C422.06,-1877.59 428.07,-1867.51 433.606,-1858.22"/>
<polygon fill="black" stroke="black" points="436.626,-1859.99 438.739,-1849.61 430.613,-1856.41 436.626,-1859.99"/>
</g>
<!-- n34 -->
<g id="node34" class="node"><title>n34</title>
<g id="a_node34"><a xlink:title="[...e/ubuntu/torch/install/share/lua/5.1/crnn/model/LSTM.lua]:35">
<ellipse fill="lightseagreen" stroke="black" cx="643" cy="-1026" rx="133.465" ry="37.4533"/>
<text text-anchor="middle" x="643" y="-1037.3" font-family="Times,serif" font-size="14.00">all_input_sums[2] (34)</text>
<text text-anchor="start" x="556.5" y="-1022.3" font-family="Times,serif" font-size="14.00">module = nn.CAddTable</text>
<text text-anchor="middle" x="643" y="-1007.3" font-family="Times,serif" font-size="14.00">mapindex = {Node38,Node39}</text>
</a>
</g>
</g>
<!-- n34&#45;&gt;n30 -->
<g id="edge42" class="edge"><title>n34&#45;&gt;n30</title>
<path fill="none" stroke="black" d="M614.479,-989.259C606.676,-979.48 598.251,-968.923 590.562,-959.287"/>
<polygon fill="black" stroke="black" points="593.279,-957.08 584.306,-951.447 587.808,-961.446 593.279,-957.08"/>
</g>
<!-- n34&#45;&gt;n31 -->
<g id="edge43" class="edge"><title>n34&#45;&gt;n31</title>
<path fill="none" stroke="black" d="M689.491,-990.652C704.53,-979.542 721.094,-967.303 735.728,-956.492"/>
<polygon fill="black" stroke="black" points="738.132,-959.068 744.095,-950.31 733.972,-953.437 738.132,-959.068"/>
</g>
<!-- n35 -->
<g id="node35" class="node"><title>n35</title>
<g id="a_node35"><a xlink:title="[[C]]:&#45;1">
<ellipse fill="none" stroke="black" cx="532" cy="-2519" rx="51.99" ry="26.7407"/>
<text text-anchor="middle" x="532" y="-2522.8" font-family="Times,serif" font-size="14.00">Node35</text>
<text text-anchor="middle" x="532" y="-2507.8" font-family="Times,serif" font-size="14.00">input = {}</text>
</a>
</g>
</g>
<!-- n35&#45;&gt;n32 -->
<g id="edge44" class="edge"><title>n35&#45;&gt;n32</title>
<path fill="none" stroke="black" d="M532,-2492.07C532,-2484 532,-2474.94 532,-2466.3"/>
<polygon fill="black" stroke="black" points="535.5,-2466.05 532,-2456.05 528.5,-2466.05 535.5,-2466.05"/>
</g>
<!-- n36 -->
<g id="node36" class="node"><title>n36</title>
<g id="a_node36"><a xlink:title="[...e/ubuntu/torch/install/share/lua/5.1/crnn/model/LSTM.lua]:33">
<ellipse fill="yellow" stroke="black" cx="281" cy="-2025" rx="133.465" ry="26.7407"/>
<text text-anchor="middle" x="281" y="-2028.8" font-family="Times,serif" font-size="14.00">i2h[1] (36)</text>
<text text-anchor="middle" x="281" y="-2013.8" font-family="Times,serif" font-size="14.00">module = nn.Linear(65 &#45;&gt; 512)</text>
</a>
</g>
</g>
<!-- n36&#45;&gt;n33 -->
<g id="edge45" class="edge"><title>n36&#45;&gt;n33</title>
<path fill="none" stroke="black" d="M310.062,-1998.76C321.316,-1988.99 334.5,-1977.54 347.078,-1966.62"/>
<polygon fill="black" stroke="black" points="349.554,-1969.1 354.809,-1959.9 344.964,-1963.82 349.554,-1969.1"/>
</g>
<!-- n37 -->
<g id="node37" class="node"><title>n37</title>
<g id="a_node37"><a xlink:title="[...e/ubuntu/torch/install/share/lua/5.1/crnn/model/LSTM.lua]:34">
<ellipse fill="green" stroke="black" cx="571" cy="-2025" rx="138.389" ry="26.7407"/>
<text text-anchor="middle" x="571" y="-2028.8" font-family="Times,serif" font-size="14.00">h2h[1] (37)</text>
<text text-anchor="middle" x="571" y="-2013.8" font-family="Times,serif" font-size="14.00">module = nn.Linear(128 &#45;&gt; 512)</text>
</a>
</g>
</g>
<!-- n37&#45;&gt;n33 -->
<g id="edge46" class="edge"><title>n37&#45;&gt;n33</title>
<path fill="none" stroke="black" d="M527.042,-1999.27C507.444,-1988.25 483.92,-1975.02 462.192,-1962.8"/>
<polygon fill="black" stroke="black" points="463.759,-1959.66 453.328,-1957.81 460.327,-1965.76 463.759,-1959.66"/>
</g>
<!-- n38&#45;&gt;n34 -->
<g id="edge47" class="edge"><title>n38&#45;&gt;n34</title>
<path fill="none" stroke="black" d="M579.371,-1100.25C587.303,-1091.12 596.462,-1080.57 605.316,-1070.38"/>
<polygon fill="black" stroke="black" points="608.086,-1072.53 612.001,-1062.68 602.801,-1067.94 608.086,-1072.53"/>
</g>
<!-- n39 -->
<g id="node39" class="node"><title>n39</title>
<g id="a_node39"><a xlink:title="[...e/ubuntu/torch/install/share/lua/5.1/crnn/model/LSTM.lua]:34">
<ellipse fill="green" stroke="black" cx="738" cy="-1329" rx="138.389" ry="26.7407"/>
<text text-anchor="middle" x="738" y="-1332.8" font-family="Times,serif" font-size="14.00">h2h[2] (39)</text>
<text text-anchor="middle" x="738" y="-1317.8" font-family="Times,serif" font-size="14.00">module = nn.Linear(128 &#45;&gt; 512)</text>
</a>
</g>
</g>
<!-- n39&#45;&gt;n34 -->
<g id="edge48" class="edge"><title>n39&#45;&gt;n34</title>
<path fill="none" stroke="black" d="M738.603,-1302.12C738.668,-1258.46 734.657,-1168.27 704,-1100 699.291,-1089.51 692.632,-1079.33 685.433,-1070.06"/>
<polygon fill="black" stroke="black" points="688.032,-1067.71 679.002,-1062.17 682.605,-1072.14 688.032,-1067.71"/>
</g>
<!-- n40 -->
<g id="node40" class="node"><title>n40</title>
<g id="a_node40"><a xlink:title="[...e/ubuntu/torch/install/share/lua/5.1/crnn/model/LSTM.lua]:25">
<ellipse fill="none" stroke="black" cx="303" cy="-2126" rx="82.0366" ry="26.7407"/>
<text text-anchor="middle" x="303" y="-2129.8" font-family="Times,serif" font-size="14.00">Node40</text>
<text text-anchor="middle" x="303" y="-2114.8" font-family="Times,serif" font-size="14.00">module = OneHot</text>
</a>
</g>
</g>
<!-- n40&#45;&gt;n36 -->
<g id="edge49" class="edge"><title>n40&#45;&gt;n36</title>
<path fill="none" stroke="black" d="M297.22,-2098.99C294.713,-2087.71 291.736,-2074.31 289.021,-2062.09"/>
<polygon fill="black" stroke="black" points="292.404,-2061.18 286.818,-2052.18 285.571,-2062.7 292.404,-2061.18"/>
</g>
<!-- n41 -->
<g id="node41" class="node"><title>n41</title>
<g id="a_node41"><a xlink:title="[...e/ubuntu/torch/install/share/lua/5.1/crnn/model/LSTM.lua]:13">
<ellipse fill="blue" stroke="black" cx="532" cy="-2227" rx="94.0678" ry="26.7407"/>
<text text-anchor="middle" x="532" y="-2230.8" font-family="Times,serif" font-size="14.00">prev_c[1] (41)</text>
<text text-anchor="middle" x="532" y="-2215.8" font-family="Times,serif" font-size="14.00">module = nn.Identity</text>
</a>
</g>
</g>
<!-- n41&#45;&gt;n37 -->
<g id="edge50" class="edge"><title>n41&#45;&gt;n37</title>
<path fill="none" stroke="black" d="M537.099,-2199.85C543.96,-2164.67 556.195,-2101.92 563.939,-2062.21"/>
<polygon fill="black" stroke="black" points="567.421,-2062.64 565.9,-2052.15 560.551,-2061.3 567.421,-2062.64"/>
</g>
<!-- n42 -->
<g id="node42" class="node"><title>n42</title>
<g id="a_node42"><a xlink:title="[...e/ubuntu/torch/install/share/lua/5.1/crnn/model/LSTM.lua]:13">
<ellipse fill="blue" stroke="black" cx="738" cy="-2227" rx="94.0678" ry="26.7407"/>
<text text-anchor="middle" x="738" y="-2230.8" font-family="Times,serif" font-size="14.00">prev_c[2] (42)</text>
<text text-anchor="middle" x="738" y="-2215.8" font-family="Times,serif" font-size="14.00">module = nn.Identity</text>
</a>
</g>
</g>
<!-- n42&#45;&gt;n39 -->
<g id="edge52" class="edge"><title>n42&#45;&gt;n39</title>
<path fill="none" stroke="black" d="M738,-2200.11C738,-2161.99 738,-2088.5 738,-2026 738,-2026 738,-2026 738,-1541 738,-1479.54 738,-1408.01 738,-1366"/>
<polygon fill="black" stroke="black" points="741.5,-1365.99 738,-1355.99 734.5,-1365.99 741.5,-1365.99"/>
</g>
<!-- n43 -->
<g id="node43" class="node"><title>n43</title>
<g id="a_node43"><a xlink:title="[...e/ubuntu/torch/install/share/lua/5.1/crnn/model/LSTM.lua]:8">
<ellipse fill="blue" stroke="black" cx="315" cy="-2227" rx="94.0678" ry="26.7407"/>
<text text-anchor="middle" x="315" y="-2230.8" font-family="Times,serif" font-size="14.00">x (43)</text>
<text text-anchor="middle" x="315" y="-2215.8" font-family="Times,serif" font-size="14.00">module = nn.Identity</text>
</a>
</g>
</g>
<!-- n43&#45;&gt;n40 -->
<g id="edge53" class="edge"><title>n43&#45;&gt;n40</title>
<path fill="none" stroke="black" d="M311.847,-2199.99C310.494,-2188.82 308.889,-2175.58 307.42,-2163.46"/>
<polygon fill="black" stroke="black" points="310.851,-2162.69 306.173,-2153.18 303.902,-2163.53 310.851,-2162.69"/>
</g>
<!-- n44&#45;&gt;n41 -->
<g id="edge54" class="edge"><title>n44&#45;&gt;n41</title>
<path fill="none" stroke="black" d="M532,-2290.42C532,-2281.8 532,-2272.63 532,-2264.04"/>
<polygon fill="black" stroke="black" points="535.5,-2263.92 532,-2253.92 528.5,-2263.92 535.5,-2263.92"/>
</g>
<!-- n45&#45;&gt;n42 -->
<g id="edge55" class="edge"><title>n45&#45;&gt;n42</title>
<path fill="none" stroke="black" d="M723.434,-2290.7C725.461,-2281.97 727.625,-2272.66 729.649,-2263.95"/>
<polygon fill="black" stroke="black" points="733.089,-2264.6 731.943,-2254.07 726.271,-2263.02 733.089,-2264.6"/>
</g>
<!-- n46&#45;&gt;n43 -->
<g id="edge56" class="edge"><title>n46&#45;&gt;n43</title>
<path fill="none" stroke="black" d="M336.629,-2290.98C333.566,-2282.06 330.287,-2272.51 327.231,-2263.61"/>
<polygon fill="black" stroke="black" points="330.458,-2262.23 323.899,-2253.91 323.837,-2264.51 330.458,-2262.23"/>
</g>
</g>
</svg>
