<?xml version="1.0" encoding="UTF-8" standalone="no"?>
<!DOCTYPE svg PUBLIC "-//W3C//DTD SVG 1.1//EN"
 "http://www.w3.org/Graphics/SVG/1.1/DTD/svg11.dtd">
<!-- Generated by graphviz version 2.36.0 (20140111.2315)
 -->
<!-- Title: G Pages: 1 -->
<svg width="1114pt" height="2577pt"
 viewBox="0.00 0.00 1114.00 2577.00" xmlns="http://www.w3.org/2000/svg" xmlns:xlink="http://www.w3.org/1999/xlink">
<g id="graph0" class="graph" transform="scale(1 1) rotate(0) translate(4 2573)">
<title>G</title>
<polygon fill="white" stroke="none" points="-4,4 -4,-2573 1110,-2573 1110,4 -4,4"/>
<text text-anchor="middle" x="553" y="-2553.8" font-family="Times,serif" font-size="14.00">CharLstm_color2</text>
<!-- n1 -->
<g id="node1" class="node"><title>n1</title>
<g id="a_node1"><a xlink:title="[...e/ubuntu/torch/install/share/lua/5.1/crnn/model/LSTM.lua]:46">
<ellipse fill="#104e8b" stroke="black" cx="359" cy="-1430" rx="124.176" ry="37.4533"/>
<text text-anchor="middle" x="359" y="-1441.3" font-family="Times,serif" font-size="14.00">next_c[1] (1)</text>
<text text-anchor="start" x="279" y="-1426.3" font-family="Times,serif" font-size="14.00">module = nn.CAddTable</text>
<text text-anchor="middle" x="359" y="-1411.3" font-family="Times,serif" font-size="14.00">mapindex = {Node7,Node8}</text>
</a>
</g>
</g>
<!-- n2 -->
<g id="node2" class="node"><title>n2</title>
<g id="a_node2"><a xlink:title="[[C]]:&#45;1">
<ellipse fill="none" stroke="black" cx="425" cy="-38" rx="208.395" ry="37.4533"/>
<text text-anchor="middle" x="425" y="-49.3" font-family="Times,serif" font-size="14.00">Node2</text>
<text text-anchor="start" x="285.5" y="-34.3" font-family="Times,serif" font-size="14.00">input = {}</text>
<text text-anchor="middle" x="425" y="-19.3" font-family="Times,serif" font-size="14.00">mapindex = {Node1,Node3,Node4,Node5,Node6}</text>
</a>
</g>
</g>
<!-- n1&#45;&gt;n2 -->
<g id="edge1" class="edge"><title>n1&#45;&gt;n2</title>
<path fill="none" stroke="black" d="M356.081,-1392.53C353.129,-1352.46 349,-1286.19 349,-1229 349,-1229 349,-1229 349,-228 349,-175.998 374.073,-121.382 395.416,-84.3093"/>
<polygon fill="black" stroke="black" points="398.679,-85.6661 400.744,-75.2744 392.649,-82.1101 398.679,-85.6661"/>
</g>
<!-- n10 -->
<g id="node10" class="node"><title>n10</title>
<g id="a_node10"><a xlink:title="[...e/ubuntu/torch/install/share/lua/5.1/crnn/model/LSTM.lua]:50">
<ellipse fill="none" stroke="black" cx="461" cy="-1329" rx="84.2187" ry="26.7407"/>
<text text-anchor="middle" x="461" y="-1332.8" font-family="Times,serif" font-size="14.00">Node10</text>
<text text-anchor="middle" x="461" y="-1317.8" font-family="Times,serif" font-size="14.00">module = nn.Tanh</text>
</a>
</g>
</g>
<!-- n1&#45;&gt;n10 -->
<g id="edge20" class="edge"><title>n1&#45;&gt;n10</title>
<path fill="none" stroke="black" d="M394.961,-1394.1C405.761,-1383.61 417.55,-1372.17 428.138,-1361.9"/>
<polygon fill="black" stroke="black" points="430.867,-1364.12 435.605,-1354.65 425.992,-1359.1 430.867,-1364.12"/>
</g>
<!-- n3 -->
<g id="node3" class="node"><title>n3</title>
<g id="a_node3"><a xlink:title="[...e/ubuntu/torch/install/share/lua/5.1/crnn/model/LSTM.lua]:50">
<ellipse fill="#104e8b" stroke="black" cx="540" cy="-1228" rx="128.54" ry="37.4533"/>
<text text-anchor="middle" x="540" y="-1239.3" font-family="Times,serif" font-size="14.00">next_h[1] (3)</text>
<text text-anchor="start" x="457" y="-1224.3" font-family="Times,serif" font-size="14.00">module = nn.CMulTable</text>
<text text-anchor="middle" x="540" y="-1209.3" font-family="Times,serif" font-size="14.00">mapindex = {Node9,Node10}</text>
</a>
</g>
</g>
<!-- n3&#45;&gt;n2 -->
<g id="edge2" class="edge"><title>n3&#45;&gt;n2</title>
<path fill="none" stroke="black" d="M466.977,-1197.06C447.901,-1186.07 429.054,-1171.84 416,-1154 381.815,-1107.27 387,-1084.9 387,-1027 387,-1027 387,-1027 387,-228 387,-178.535 399.665,-123.191 410.372,-85.243"/>
<polygon fill="black" stroke="black" points="413.773,-86.0815 413.185,-75.503 407.048,-84.1392 413.773,-86.0815"/>
</g>
<!-- n38 -->
<g id="node38" class="node"><title>n38</title>
<g id="a_node38"><a xlink:title="[...e/ubuntu/torch/install/share/lua/5.1/crnn/model/LSTM.lua]:33">
<ellipse fill="yellow" stroke="black" cx="564" cy="-1127" rx="138.389" ry="26.7407"/>
<text text-anchor="middle" x="564" y="-1130.8" font-family="Times,serif" font-size="14.00">i2h[2] (38)</text>
<text text-anchor="middle" x="564" y="-1115.8" font-family="Times,serif" font-size="14.00">module = nn.Linear(128 &#45;&gt; 512)</text>
</a>
</g>
</g>
<!-- n3&#45;&gt;n38 -->
<g id="edge51" class="edge"><title>n3&#45;&gt;n38</title>
<path fill="none" stroke="black" d="M548.869,-1190.42C550.98,-1181.71 553.23,-1172.42 555.333,-1163.75"/>
<polygon fill="black" stroke="black" points="558.761,-1164.47 557.715,-1153.92 551.958,-1162.82 558.761,-1164.47"/>
</g>
<!-- n4 -->
<g id="node4" class="node"><title>n4</title>
<g id="a_node4"><a xlink:title="[...e/ubuntu/torch/install/share/lua/5.1/crnn/model/LSTM.lua]:46">
<ellipse fill="#104e8b" stroke="black" cx="648" cy="-532" rx="133.465" ry="37.4533"/>
<text text-anchor="middle" x="648" y="-543.3" font-family="Times,serif" font-size="14.00">next_c[2] (4)</text>
<text text-anchor="start" x="561.5" y="-528.3" font-family="Times,serif" font-size="14.00">module = nn.CAddTable</text>
<text text-anchor="middle" x="648" y="-513.3" font-family="Times,serif" font-size="14.00">mapindex = {Node11,Node12}</text>
</a>
</g>
</g>
<!-- n4&#45;&gt;n2 -->
<g id="edge3" class="edge"><title>n4&#45;&gt;n2</title>
<path fill="none" stroke="black" d="M678.852,-495.395C708.554,-457.367 749,-394.016 749,-331 749,-331 749,-331 749,-228 749,-171.859 741.498,-148.684 699,-112 672.544,-89.1637 639.69,-73.3791 606.021,-62.4914"/>
<polygon fill="black" stroke="black" points="606.619,-59.0132 596.032,-59.4082 604.555,-65.7018 606.619,-59.0132"/>
</g>
<!-- n14 -->
<g id="node14" class="node"><title>n14</title>
<g id="a_node14"><a xlink:title="[...e/ubuntu/torch/install/share/lua/5.1/crnn/model/LSTM.lua]:50">
<ellipse fill="none" stroke="black" cx="607" cy="-431" rx="84.2187" ry="26.7407"/>
<text text-anchor="middle" x="607" y="-434.8" font-family="Times,serif" font-size="14.00">Node14</text>
<text text-anchor="middle" x="607" y="-419.8" font-family="Times,serif" font-size="14.00">module = nn.Tanh</text>
</a>
</g>
</g>
<!-- n4&#45;&gt;n14 -->
<g id="edge26" class="edge"><title>n4&#45;&gt;n14</title>
<path fill="none" stroke="black" d="M632.966,-494.698C629.24,-485.701 625.254,-476.077 621.552,-467.137"/>
<polygon fill="black" stroke="black" points="624.731,-465.667 617.671,-457.767 618.264,-468.345 624.731,-465.667"/>
</g>
<!-- n5 -->
<g id="node5" class="node"><title>n5</title>
<g id="a_node5"><a xlink:title="[...e/ubuntu/torch/install/share/lua/5.1/crnn/model/LSTM.lua]:50">
<ellipse fill="#104e8b" stroke="black" cx="587" cy="-330" rx="133.465" ry="37.4533"/>
<text text-anchor="middle" x="587" y="-341.3" font-family="Times,serif" font-size="14.00">next_h[2] (5)</text>
<text text-anchor="start" x="500.5" y="-326.3" font-family="Times,serif" font-size="14.00">module = nn.CMulTable</text>
<text text-anchor="middle" x="587" y="-311.3" font-family="Times,serif" font-size="14.00">mapindex = {Node13,Node14}</text>
</a>
</g>
</g>
<!-- n5&#45;&gt;n2 -->
<g id="edge4" class="edge"><title>n5&#45;&gt;n2</title>
<path fill="none" stroke="black" d="M499.669,-301.666C478.171,-290.811 457.476,-275.994 444,-256 409.934,-205.456 411.231,-132.542 416.867,-85.4596"/>
<polygon fill="black" stroke="black" points="420.339,-85.9013 418.165,-75.5318 413.398,-84.9935 420.339,-85.9013"/>
</g>
<!-- n15 -->
<g id="node15" class="node"><title>n15</title>
<g id="a_node15"><a xlink:title="[...e/ubuntu/torch/install/share/lua/5.1/crnn/model/LSTM.lua]:69">
<ellipse fill="none" stroke="black" cx="587" cy="-229" rx="133.465" ry="26.7407"/>
<text text-anchor="middle" x="587" y="-232.8" font-family="Times,serif" font-size="14.00">proj (15)</text>
<text text-anchor="middle" x="587" y="-217.8" font-family="Times,serif" font-size="14.00">module = nn.Linear(128 &#45;&gt; 65)</text>
</a>
</g>
</g>
<!-- n5&#45;&gt;n15 -->
<g id="edge27" class="edge"><title>n5&#45;&gt;n15</title>
<path fill="none" stroke="black" d="M587,-292.417C587,-283.802 587,-274.626 587,-266.035"/>
<polygon fill="black" stroke="black" points="590.5,-265.924 587,-255.924 583.5,-265.924 590.5,-265.924"/>
</g>
<!-- n6 -->
<g id="node6" class="node"><title>n6</title>
<g id="a_node6"><a xlink:title="[...e/ubuntu/torch/install/share/lua/5.1/crnn/model/LSTM.lua]:70">
<ellipse fill="hotpink" stroke="black" cx="577" cy="-139" rx="113.267" ry="26.7407"/>
<text text-anchor="middle" x="577" y="-142.8" font-family="Times,serif" font-size="14.00">logsoft (6)</text>
<text text-anchor="middle" x="577" y="-127.8" font-family="Times,serif" font-size="14.00">module = nn.LogSoftMax</text>
</a>
</g>
</g>
<!-- n6&#45;&gt;n2 -->
<g id="edge5" class="edge"><title>n6&#45;&gt;n2</title>
<path fill="none" stroke="black" d="M539.427,-113.528C523.788,-103.342 505.203,-91.2376 487.607,-79.7771"/>
<polygon fill="black" stroke="black" points="489.356,-76.7389 479.066,-74.2141 485.535,-82.6045 489.356,-76.7389"/>
</g>
<!-- n7 -->
<g id="node7" class="node"><title>n7</title>
<g id="a_node7"><a xlink:title="[...e/ubuntu/torch/install/share/lua/5.1/crnn/model/LSTM.lua]:47">
<ellipse fill="none" stroke="black" cx="133" cy="-1542" rx="133.465" ry="37.4533"/>
<text text-anchor="middle" x="133" y="-1553.3" font-family="Times,serif" font-size="14.00">Node7</text>
<text text-anchor="start" x="46.5" y="-1538.3" font-family="Times,serif" font-size="14.00">module = nn.CMulTable</text>
<text text-anchor="middle" x="133" y="-1523.3" font-family="Times,serif" font-size="14.00">mapindex = {Node16,Node17}</text>
</a>
</g>
</g>
<!-- n7&#45;&gt;n1 -->
<g id="edge6" class="edge"><title>n7&#45;&gt;n1</title>
<path fill="none" stroke="black" d="M198.369,-1509.18C225.777,-1495.84 257.762,-1480.28 285.943,-1466.56"/>
<polygon fill="black" stroke="black" points="287.488,-1469.7 294.948,-1462.18 284.425,-1463.41 287.488,-1469.7"/>
</g>
<!-- n8 -->
<g id="node8" class="node"><title>n8</title>
<g id="a_node8"><a xlink:title="[...e/ubuntu/torch/install/share/lua/5.1/crnn/model/LSTM.lua]:48">
<ellipse fill="none" stroke="black" cx="418" cy="-1542" rx="133.465" ry="37.4533"/>
<text text-anchor="middle" x="418" y="-1553.3" font-family="Times,serif" font-size="14.00">Node8</text>
<text text-anchor="start" x="331.5" y="-1538.3" font-family="Times,serif" font-size="14.00">module = nn.CMulTable</text>
<text text-anchor="middle" x="418" y="-1523.3" font-family="Times,serif" font-size="14.00">mapindex = {Node18,Node19}</text>
</a>
</g>
</g>
<!-- n8&#45;&gt;n1 -->
<g id="edge7" class="edge"><title>n8&#45;&gt;n1</title>
<path fill="none" stroke="black" d="M398.518,-1504.68C393.634,-1495.57 388.335,-1485.69 383.25,-1476.21"/>
<polygon fill="black" stroke="black" points="386.273,-1474.44 378.462,-1467.28 380.104,-1477.75 386.273,-1474.44"/>
</g>
<!-- n9 -->
<g id="node9" class="node"><title>n9</title>
<g id="a_node9"><a xlink:title="[...e/ubuntu/torch/install/share/lua/5.1/crnn/model/LSTM.lua]:41">
<ellipse fill="#ff3030" stroke="black" cx="596" cy="-1430" rx="93.0077" ry="26.7407"/>
<text text-anchor="middle" x="596" y="-1433.8" font-family="Times,serif" font-size="14.00">out_gate[1] (9)</text>
<text text-anchor="middle" x="596" y="-1418.8" font-family="Times,serif" font-size="14.00">module = nn.Narrow</text>
</a>
</g>
</g>
<!-- n9&#45;&gt;n3 -->
<g id="edge8" class="edge"><title>n9&#45;&gt;n3</title>
<path fill="none" stroke="black" d="M588.679,-1402.85C579.632,-1370.54 564.079,-1315 552.987,-1275.38"/>
<polygon fill="black" stroke="black" points="556.337,-1274.37 550.27,-1265.68 549.596,-1276.25 556.337,-1274.37"/>
</g>
<!-- n10&#45;&gt;n3 -->
<g id="edge9" class="edge"><title>n10&#45;&gt;n3</title>
<path fill="none" stroke="black" d="M481.139,-1302.76C488.498,-1293.54 497.048,-1282.83 505.312,-1272.47"/>
<polygon fill="black" stroke="black" points="508.05,-1274.65 511.552,-1264.65 502.578,-1270.28 508.05,-1274.65"/>
</g>
<!-- n11 -->
<g id="node11" class="node"><title>n11</title>
<g id="a_node11"><a xlink:title="[...e/ubuntu/torch/install/share/lua/5.1/crnn/model/LSTM.lua]:47">
<ellipse fill="none" stroke="black" cx="834" cy="-644" rx="133.465" ry="37.4533"/>
<text text-anchor="middle" x="834" y="-655.3" font-family="Times,serif" font-size="14.00">Node11</text>
<text text-anchor="start" x="747.5" y="-640.3" font-family="Times,serif" font-size="14.00">module = nn.CMulTable</text>
<text text-anchor="middle" x="834" y="-625.3" font-family="Times,serif" font-size="14.00">mapindex = {Node21,Node22}</text>
</a>
</g>
</g>
<!-- n11&#45;&gt;n4 -->
<g id="edge10" class="edge"><title>n11&#45;&gt;n4</title>
<path fill="none" stroke="black" d="M777.942,-609.847C757.353,-597.671 733.88,-583.789 712.601,-571.205"/>
<polygon fill="black" stroke="black" points="714.333,-568.163 703.944,-566.085 710.769,-574.188 714.333,-568.163"/>
</g>
<!-- n12 -->
<g id="node12" class="node"><title>n12</title>
<g id="a_node12"><a xlink:title="[...e/ubuntu/torch/install/share/lua/5.1/crnn/model/LSTM.lua]:48">
<ellipse fill="none" stroke="black" cx="549" cy="-644" rx="133.465" ry="37.4533"/>
<text text-anchor="middle" x="549" y="-655.3" font-family="Times,serif" font-size="14.00">Node12</text>
<text text-anchor="start" x="462.5" y="-640.3" font-family="Times,serif" font-size="14.00">module = nn.CMulTable</text>
<text text-anchor="middle" x="549" y="-625.3" font-family="Times,serif" font-size="14.00">mapindex = {Node23,Node24}</text>
</a>
</g>
</g>
<!-- n12&#45;&gt;n4 -->
<g id="edge11" class="edge"><title>n12&#45;&gt;n4</title>
<path fill="none" stroke="black" d="M580.869,-607.59C589.875,-597.583 599.777,-586.581 609.145,-576.173"/>
<polygon fill="black" stroke="black" points="611.763,-578.495 615.851,-568.721 606.56,-573.813 611.763,-578.495"/>
</g>
<!-- n13 -->
<g id="node13" class="node"><title>n13</title>
<g id="a_node13"><a xlink:title="[...e/ubuntu/torch/install/share/lua/5.1/crnn/model/LSTM.lua]:41">
<ellipse fill="#ff3030" stroke="black" cx="975" cy="-532" rx="93.0077" ry="26.7407"/>
<text text-anchor="middle" x="975" y="-535.8" font-family="Times,serif" font-size="14.00">out_gate[2] (13)</text>
<text text-anchor="middle" x="975" y="-520.8" font-family="Times,serif" font-size="14.00">module = nn.Narrow</text>
</a>
</g>
</g>
<!-- n13&#45;&gt;n5 -->
<g id="edge12" class="edge"><title>n13&#45;&gt;n5</title>
<path fill="none" stroke="black" d="M930.869,-508.252C864.505,-474.044 738.315,-408.997 658.644,-367.93"/>
<polygon fill="black" stroke="black" points="660.138,-364.763 649.646,-363.292 656.931,-370.985 660.138,-364.763"/>
</g>
<!-- n14&#45;&gt;n5 -->
<g id="edge13" class="edge"><title>n14&#45;&gt;n5</title>
<path fill="none" stroke="black" d="M601.745,-403.989C600.114,-395.914 598.263,-386.753 596.438,-377.716"/>
<polygon fill="black" stroke="black" points="599.811,-376.74 594.4,-367.631 592.95,-378.126 599.811,-376.74"/>
</g>
<!-- n15&#45;&gt;n6 -->
<g id="edge14" class="edge"><title>n15&#45;&gt;n6</title>
<path fill="none" stroke="black" d="M584.054,-202.073C583.126,-193.911 582.085,-184.744 581.092,-176.011"/>
<polygon fill="black" stroke="black" points="584.567,-175.587 579.96,-166.046 577.611,-176.377 584.567,-175.587"/>
</g>
<!-- n16 -->
<g id="node16" class="node"><title>n16</title>
<g id="a_node16"><a xlink:title="[...e/ubuntu/torch/install/share/lua/5.1/crnn/model/LSTM.lua]:40">
<ellipse fill="darkorchid" stroke="black" cx="273" cy="-1643" rx="93.0077" ry="26.7407"/>
<text text-anchor="middle" x="273" y="-1646.8" font-family="Times,serif" font-size="14.00">forget_gate[1] (16)</text>
<text text-anchor="middle" x="273" y="-1631.8" font-family="Times,serif" font-size="14.00">module = nn.Narrow</text>
</a>
</g>
</g>
<!-- n16&#45;&gt;n7 -->
<g id="edge15" class="edge"><title>n16&#45;&gt;n7</title>
<path fill="none" stroke="black" d="M238.752,-1617.78C224,-1607.35 206.352,-1594.87 189.739,-1583.12"/>
<polygon fill="black" stroke="black" points="191.352,-1579.98 181.166,-1577.06 187.31,-1585.69 191.352,-1579.98"/>
</g>
<!-- n17 -->
<g id="node17" class="node"><title>n17</title>
<g id="a_node17"><a xlink:title="[...e/ubuntu/torch/install/share/lua/5.1/crnn/model/LSTM.lua]:11">
<ellipse fill="blue" stroke="black" cx="119" cy="-1924" rx="94.0678" ry="26.7407"/>
<text text-anchor="middle" x="119" y="-1927.8" font-family="Times,serif" font-size="14.00">prev_c[1] (17)</text>
<text text-anchor="middle" x="119" y="-1912.8" font-family="Times,serif" font-size="14.00">module = nn.Identity</text>
</a>
</g>
</g>
<!-- n17&#45;&gt;n7 -->
<g id="edge16" class="edge"><title>n17&#45;&gt;n7</title>
<path fill="none" stroke="black" d="M119.962,-1896.88C122.298,-1833.49 128.292,-1670.79 131.269,-1589.99"/>
<polygon fill="black" stroke="black" points="134.78,-1589.74 131.651,-1579.62 127.785,-1589.48 134.78,-1589.74"/>
</g>
<!-- n18 -->
<g id="node18" class="node"><title>n18</title>
<g id="a_node18"><a xlink:title="[...e/ubuntu/torch/install/share/lua/5.1/crnn/model/LSTM.lua]:39">
<ellipse fill="aquamarine" stroke="black" cx="478" cy="-1643" rx="93.0077" ry="26.7407"/>
<text text-anchor="middle" x="478" y="-1646.8" font-family="Times,serif" font-size="14.00">in_gate[1] (18)</text>
<text text-anchor="middle" x="478" y="-1631.8" font-family="Times,serif" font-size="14.00">module = nn.Narrow</text>
</a>
</g>
</g>
<!-- n18&#45;&gt;n8 -->
<g id="edge17" class="edge"><title>n18&#45;&gt;n8</title>
<path fill="none" stroke="black" d="M462.392,-1616.25C457.129,-1607.56 451.09,-1597.6 445.197,-1587.88"/>
<polygon fill="black" stroke="black" points="448.029,-1585.8 439.853,-1579.06 442.043,-1589.42 448.029,-1585.8"/>
</g>
<!-- n19 -->
<g id="node19" class="node"><title>n19</title>
<g id="a_node19"><a xlink:title="[...e/ubuntu/torch/install/share/lua/5.1/crnn/model/LSTM.lua]:44">
<ellipse fill="gold" stroke="black" cx="243" cy="-1733" rx="91.3254" ry="26.7407"/>
<text text-anchor="middle" x="243" y="-1736.8" font-family="Times,serif" font-size="14.00">in_transform[1] (19)</text>
<text text-anchor="middle" x="243" y="-1721.8" font-family="Times,serif" font-size="14.00">module = nn.Tanh</text>
</a>
</g>
</g>
<!-- n19&#45;&gt;n8 -->
<g id="edge18" class="edge"><title>n19&#45;&gt;n8</title>
<path fill="none" stroke="black" d="M204.176,-1708.58C191.121,-1698.5 178.082,-1685.44 171,-1670 160.996,-1648.18 156.634,-1635.23 171,-1616 175.638,-1609.79 247.689,-1588.9 312.779,-1571.05"/>
<polygon fill="black" stroke="black" points="314.015,-1574.34 322.738,-1568.33 312.169,-1567.59 314.015,-1574.34"/>
</g>
<!-- n20 -->
<g id="node20" class="node"><title>n20</title>
<g id="a_node20"><a xlink:title="[...e/ubuntu/torch/install/share/lua/5.1/crnn/model/LSTM.lua]:38">
<ellipse fill="none" stroke="black" cx="459" cy="-1733" rx="96.3112" ry="26.7407"/>
<text text-anchor="middle" x="459" y="-1736.8" font-family="Times,serif" font-size="14.00">Node20</text>
<text text-anchor="middle" x="459" y="-1721.8" font-family="Times,serif" font-size="14.00">module = nn.Sigmoid</text>
</a>
</g>
</g>
<!-- n20&#45;&gt;n9 -->
<g id="edge19" class="edge"><title>n20&#45;&gt;n9</title>
<path fill="none" stroke="black" d="M524.262,-1713.1C545.509,-1703.63 566.959,-1689.82 580,-1670 620.66,-1608.22 612.547,-1516.93 603.805,-1466.95"/>
<polygon fill="black" stroke="black" points="607.213,-1466.13 601.947,-1456.93 600.33,-1467.41 607.213,-1466.13"/>
</g>
<!-- n20&#45;&gt;n16 -->
<g id="edge28" class="edge"><title>n20&#45;&gt;n16</title>
<path fill="none" stroke="black" d="M411.583,-1709.57C386.454,-1697.68 355.426,-1683 329.105,-1670.54"/>
<polygon fill="black" stroke="black" points="330.544,-1667.35 320.008,-1666.24 327.55,-1673.68 330.544,-1667.35"/>
</g>
<!-- n20&#45;&gt;n18 -->
<g id="edge30" class="edge"><title>n20&#45;&gt;n18</title>
<path fill="none" stroke="black" d="M464.598,-1706.07C466.36,-1697.91 468.339,-1688.74 470.225,-1680.01"/>
<polygon fill="black" stroke="black" points="473.687,-1680.56 472.376,-1670.05 466.845,-1679.08 473.687,-1680.56"/>
</g>
<!-- n21 -->
<g id="node21" class="node"><title>n21</title>
<g id="a_node21"><a xlink:title="[...e/ubuntu/torch/install/share/lua/5.1/crnn/model/LSTM.lua]:40">
<ellipse fill="darkorchid" stroke="black" cx="854" cy="-745" rx="93.0077" ry="26.7407"/>
<text text-anchor="middle" x="854" y="-748.8" font-family="Times,serif" font-size="14.00">forget_gate[2] (21)</text>
<text text-anchor="middle" x="854" y="-733.8" font-family="Times,serif" font-size="14.00">module = nn.Narrow</text>
</a>
</g>
</g>
<!-- n21&#45;&gt;n11 -->
<g id="edge21" class="edge"><title>n21&#45;&gt;n11</title>
<path fill="none" stroke="black" d="M848.745,-717.989C847.114,-709.914 845.263,-700.753 843.438,-691.716"/>
<polygon fill="black" stroke="black" points="846.811,-690.74 841.4,-681.631 839.95,-692.126 846.811,-690.74"/>
</g>
<!-- n22 -->
<g id="node22" class="node"><title>n22</title>
<g id="a_node22"><a xlink:title="[...e/ubuntu/torch/install/share/lua/5.1/crnn/model/LSTM.lua]:11">
<ellipse fill="blue" stroke="black" cx="1012" cy="-2025" rx="94.0678" ry="26.7407"/>
<text text-anchor="middle" x="1012" y="-2028.8" font-family="Times,serif" font-size="14.00">prev_c[2] (22)</text>
<text text-anchor="middle" x="1012" y="-2013.8" font-family="Times,serif" font-size="14.00">module = nn.Identity</text>
</a>
</g>
</g>
<!-- n22&#45;&gt;n11 -->
<g id="edge22" class="edge"><title>n22&#45;&gt;n11</title>
<path fill="none" stroke="black" d="M1016.72,-1997.89C1023.18,-1959.8 1034,-1886.7 1034,-1824 1034,-1824 1034,-1824 1034,-834 1034,-764.165 968.789,-712.459 912.839,-680.948"/>
<polygon fill="black" stroke="black" points="914.4,-677.812 903.95,-676.064 911.029,-683.947 914.4,-677.812"/>
</g>
<!-- n23 -->
<g id="node23" class="node"><title>n23</title>
<g id="a_node23"><a xlink:title="[...e/ubuntu/torch/install/share/lua/5.1/crnn/model/LSTM.lua]:39">
<ellipse fill="aquamarine" stroke="black" cx="649" cy="-745" rx="93.0077" ry="26.7407"/>
<text text-anchor="middle" x="649" y="-748.8" font-family="Times,serif" font-size="14.00">in_gate[2] (23)</text>
<text text-anchor="middle" x="649" y="-733.8" font-family="Times,serif" font-size="14.00">module = nn.Narrow</text>
</a>
</g>
</g>
<!-- n23&#45;&gt;n12 -->
<g id="edge23" class="edge"><title>n23&#45;&gt;n12</title>
<path fill="none" stroke="black" d="M623.766,-719.018C614.176,-709.524 602.959,-698.419 592.174,-687.743"/>
<polygon fill="black" stroke="black" points="594.371,-684.992 584.802,-680.444 589.446,-689.967 594.371,-684.992"/>
</g>
<!-- n24 -->
<g id="node24" class="node"><title>n24</title>
<g id="a_node24"><a xlink:title="[...e/ubuntu/torch/install/share/lua/5.1/crnn/model/LSTM.lua]:44">
<ellipse fill="gold" stroke="black" cx="558" cy="-835" rx="91.3254" ry="26.7407"/>
<text text-anchor="middle" x="558" y="-838.8" font-family="Times,serif" font-size="14.00">in_transform[2] (24)</text>
<text text-anchor="middle" x="558" y="-823.8" font-family="Times,serif" font-size="14.00">module = nn.Tanh</text>
</a>
</g>
</g>
<!-- n24&#45;&gt;n12 -->
<g id="edge24" class="edge"><title>n24&#45;&gt;n12</title>
<path fill="none" stroke="black" d="M552.318,-807.89C550.194,-796.872 548.045,-783.87 547,-772 544.667,-745.498 544.977,-715.769 545.958,-691.74"/>
<polygon fill="black" stroke="black" points="549.466,-691.627 546.43,-681.476 542.474,-691.305 549.466,-691.627"/>
</g>
<!-- n25 -->
<g id="node25" class="node"><title>n25</title>
<g id="a_node25"><a xlink:title="[...e/ubuntu/torch/install/share/lua/5.1/crnn/model/LSTM.lua]:38">
<ellipse fill="none" stroke="black" cx="794" cy="-835" rx="96.3112" ry="26.7407"/>
<text text-anchor="middle" x="794" y="-838.8" font-family="Times,serif" font-size="14.00">Node25</text>
<text text-anchor="middle" x="794" y="-823.8" font-family="Times,serif" font-size="14.00">module = nn.Sigmoid</text>
</a>
</g>
</g>
<!-- n25&#45;&gt;n13 -->
<g id="edge25" class="edge"><title>n25&#45;&gt;n13</title>
<path fill="none" stroke="black" d="M874.197,-819.978C903.786,-810.95 935.145,-796.167 956,-772 1004.85,-715.396 994.501,-620.559 983.979,-569.01"/>
<polygon fill="black" stroke="black" points="987.35,-568.037 981.821,-558.999 980.507,-569.512 987.35,-568.037"/>
</g>
<!-- n25&#45;&gt;n21 -->
<g id="edge33" class="edge"><title>n25&#45;&gt;n21</title>
<path fill="none" stroke="black" d="M811.354,-808.547C817.396,-799.686 824.275,-789.596 830.718,-780.146"/>
<polygon fill="black" stroke="black" points="833.735,-781.935 836.477,-771.701 827.951,-777.992 833.735,-781.935"/>
</g>
<!-- n25&#45;&gt;n23 -->
<g id="edge35" class="edge"><title>n25&#45;&gt;n23</title>
<path fill="none" stroke="black" d="M754.761,-810.186C736.804,-799.288 715.373,-786.281 696.512,-774.835"/>
<polygon fill="black" stroke="black" points="698.133,-771.724 687.768,-769.528 694.501,-777.709 698.133,-771.724"/>
</g>
<!-- n26 -->
<g id="node26" class="node"><title>n26</title>
<g id="a_node26"><a xlink:title="[[C]]:&#45;1&#45;2">
<ellipse fill="none" stroke="black" cx="144" cy="-2328" rx="70.5656" ry="37.4533"/>
<text text-anchor="middle" x="144" y="-2339.3" font-family="Times,serif" font-size="14.00">Node26</text>
<text text-anchor="start" x="102" y="-2324.3" font-family="Times,serif" font-size="14.00">input = {}</text>
<text text-anchor="middle" x="144" y="-2309.3" font-family="Times,serif" font-size="14.00">selectindex = 2</text>
</a>
</g>
</g>
<!-- n26&#45;&gt;n17 -->
<g id="edge29" class="edge"><title>n26&#45;&gt;n17</title>
<path fill="none" stroke="black" d="M141.715,-2290.26C136.943,-2213.53 125.971,-2037.09 121.239,-1961"/>
<polygon fill="black" stroke="black" points="124.728,-1960.72 120.614,-1950.95 117.741,-1961.15 124.728,-1960.72"/>
</g>
<!-- n27 -->
<g id="node27" class="node"><title>n27</title>
<g id="a_node27"><a xlink:title="[...e/ubuntu/torch/install/share/lua/5.1/crnn/model/LSTM.lua]:43">
<ellipse fill="none" stroke="black" cx="246" cy="-1823" rx="93.0077" ry="26.7407"/>
<text text-anchor="middle" x="246" y="-1826.8" font-family="Times,serif" font-size="14.00">Node27</text>
<text text-anchor="middle" x="246" y="-1811.8" font-family="Times,serif" font-size="14.00">module = nn.Narrow</text>
</a>
</g>
</g>
<!-- n27&#45;&gt;n19 -->
<g id="edge31" class="edge"><title>n27&#45;&gt;n19</title>
<path fill="none" stroke="black" d="M245.116,-1796.07C244.841,-1788 244.532,-1778.94 244.237,-1770.3"/>
<polygon fill="black" stroke="black" points="247.727,-1769.92 243.888,-1760.05 240.731,-1770.16 247.727,-1769.92"/>
</g>
<!-- n28 -->
<g id="node28" class="node"><title>n28</title>
<g id="a_node28"><a xlink:title="[...e/ubuntu/torch/install/share/lua/5.1/crnn/model/LSTM.lua]:37">
<ellipse fill="none" stroke="black" cx="454" cy="-1823" rx="93.0077" ry="26.7407"/>
<text text-anchor="middle" x="454" y="-1826.8" font-family="Times,serif" font-size="14.00">Node28</text>
<text text-anchor="middle" x="454" y="-1811.8" font-family="Times,serif" font-size="14.00">module = nn.Narrow</text>
</a>
</g>
</g>
<!-- n28&#45;&gt;n20 -->
<g id="edge32" class="edge"><title>n28&#45;&gt;n20</title>
<path fill="none" stroke="black" d="M455.473,-1796.07C455.932,-1788 456.446,-1778.94 456.938,-1770.3"/>
<polygon fill="black" stroke="black" points="460.447,-1770.23 457.52,-1760.05 453.458,-1769.83 460.447,-1770.23"/>
</g>
<!-- n29 -->
<g id="node29" class="node"><title>n29</title>
<g id="a_node29"><a xlink:title="[[C]]:&#45;1&#45;4">
<ellipse fill="none" stroke="black" cx="926" cy="-2126" rx="70.5656" ry="37.4533"/>
<text text-anchor="middle" x="926" y="-2137.3" font-family="Times,serif" font-size="14.00">Node29</text>
<text text-anchor="start" x="884" y="-2122.3" font-family="Times,serif" font-size="14.00">input = {}</text>
<text text-anchor="middle" x="926" y="-2107.3" font-family="Times,serif" font-size="14.00">selectindex = 4</text>
</a>
</g>
</g>
<!-- n29&#45;&gt;n22 -->
<g id="edge34" class="edge"><title>n29&#45;&gt;n22</title>
<path fill="none" stroke="black" d="M954.876,-2091.76C964.053,-2081.2 974.195,-2069.52 983.356,-2058.97"/>
<polygon fill="black" stroke="black" points="986.221,-2061.01 990.137,-2051.17 980.937,-2056.42 986.221,-2061.01"/>
</g>
<!-- n30 -->
<g id="node30" class="node"><title>n30</title>
<g id="a_node30"><a xlink:title="[...e/ubuntu/torch/install/share/lua/5.1/crnn/model/LSTM.lua]:43">
<ellipse fill="none" stroke="black" cx="574" cy="-925" rx="93.0077" ry="26.7407"/>
<text text-anchor="middle" x="574" y="-928.8" font-family="Times,serif" font-size="14.00">Node30</text>
<text text-anchor="middle" x="574" y="-913.8" font-family="Times,serif" font-size="14.00">module = nn.Narrow</text>
</a>
</g>
</g>
<!-- n30&#45;&gt;n24 -->
<g id="edge36" class="edge"><title>n30&#45;&gt;n24</title>
<path fill="none" stroke="black" d="M569.286,-898.073C567.802,-889.911 566.135,-880.744 564.547,-872.011"/>
<polygon fill="black" stroke="black" points="567.968,-871.258 562.736,-862.046 561.081,-872.511 567.968,-871.258"/>
</g>
<!-- n31 -->
<g id="node31" class="node"><title>n31</title>
<g id="a_node31"><a xlink:title="[...e/ubuntu/torch/install/share/lua/5.1/crnn/model/LSTM.lua]:37">
<ellipse fill="none" stroke="black" cx="779" cy="-925" rx="93.0077" ry="26.7407"/>
<text text-anchor="middle" x="779" y="-928.8" font-family="Times,serif" font-size="14.00">Node31</text>
<text text-anchor="middle" x="779" y="-913.8" font-family="Times,serif" font-size="14.00">module = nn.Narrow</text>
</a>
</g>
</g>
<!-- n31&#45;&gt;n25 -->
<g id="edge37" class="edge"><title>n31&#45;&gt;n25</title>
<path fill="none" stroke="black" d="M783.419,-898.073C784.811,-889.911 786.373,-880.744 787.862,-872.011"/>
<polygon fill="black" stroke="black" points="791.33,-872.492 789.56,-862.046 784.43,-871.315 791.33,-872.492"/>
</g>
<!-- n32 -->
<g id="node32" class="node"><title>n32</title>
<g id="a_node32"><a xlink:title="[[C]]:&#45;1&#45;mnode">
<ellipse fill="none" stroke="black" cx="534" cy="-2429" rx="80.415" ry="26.7407"/>
<text text-anchor="middle" x="534" y="-2432.8" font-family="Times,serif" font-size="14.00">Node32</text>
<text text-anchor="middle" x="534" y="-2417.8" font-family="Times,serif" font-size="14.00">nSplitOutputs = 5</text>
</a>
</g>
</g>
<!-- n32&#45;&gt;n26 -->
<g id="edge38" class="edge"><title>n32&#45;&gt;n26</title>
<path fill="none" stroke="black" d="M468.105,-2413.46C414.767,-2401.46 337.799,-2383.59 271,-2366 252.552,-2361.14 232.703,-2355.54 214.306,-2350.19"/>
<polygon fill="black" stroke="black" points="215.125,-2346.78 204.544,-2347.34 213.16,-2353.5 215.125,-2346.78"/>
</g>
<!-- n32&#45;&gt;n29 -->
<g id="edge41" class="edge"><title>n32&#45;&gt;n29</title>
<path fill="none" stroke="black" d="M614.006,-2425.88C669.996,-2420.66 743.818,-2405.87 796,-2366 859.95,-2317.13 896.363,-2227.43 913.565,-2172.91"/>
<polygon fill="black" stroke="black" points="916.97,-2173.74 916.556,-2163.15 910.278,-2171.69 916.97,-2173.74"/>
</g>
<!-- n44 -->
<g id="node44" class="node"><title>n44</title>
<g id="a_node44"><a xlink:title="[[C]]:&#45;1&#45;3">
<ellipse fill="none" stroke="black" cx="534" cy="-2328" rx="70.5656" ry="37.4533"/>
<text text-anchor="middle" x="534" y="-2339.3" font-family="Times,serif" font-size="14.00">Node44</text>
<text text-anchor="start" x="492" y="-2324.3" font-family="Times,serif" font-size="14.00">input = {}</text>
<text text-anchor="middle" x="534" y="-2309.3" font-family="Times,serif" font-size="14.00">selectindex = 3</text>
</a>
</g>
</g>
<!-- n32&#45;&gt;n44 -->
<g id="edge57" class="edge"><title>n32&#45;&gt;n44</title>
<path fill="none" stroke="black" d="M534,-2401.99C534,-2393.91 534,-2384.75 534,-2375.72"/>
<polygon fill="black" stroke="black" points="537.5,-2375.63 534,-2365.63 530.5,-2375.63 537.5,-2375.63"/>
</g>
<!-- n45 -->
<g id="node45" class="node"><title>n45</title>
<g id="a_node45"><a xlink:title="[[C]]:&#45;1&#45;5">
<ellipse fill="none" stroke="black" cx="717" cy="-2328" rx="70.5656" ry="37.4533"/>
<text text-anchor="middle" x="717" y="-2339.3" font-family="Times,serif" font-size="14.00">Node45</text>
<text text-anchor="start" x="675" y="-2324.3" font-family="Times,serif" font-size="14.00">input = {}</text>
<text text-anchor="middle" x="717" y="-2309.3" font-family="Times,serif" font-size="14.00">selectindex = 5</text>
</a>
</g>
</g>
<!-- n32&#45;&gt;n45 -->
<g id="edge58" class="edge"><title>n32&#45;&gt;n45</title>
<path fill="none" stroke="black" d="M575.069,-2405.78C599.874,-2392.36 631.871,-2375.05 659.203,-2360.27"/>
<polygon fill="black" stroke="black" points="661.147,-2363.2 668.277,-2355.36 657.816,-2357.04 661.147,-2363.2"/>
</g>
<!-- n46 -->
<g id="node46" class="node"><title>n46</title>
<g id="a_node46"><a xlink:title="[[C]]:&#45;1&#45;1">
<ellipse fill="none" stroke="black" cx="351" cy="-2328" rx="70.5656" ry="37.4533"/>
<text text-anchor="middle" x="351" y="-2339.3" font-family="Times,serif" font-size="14.00">Node46</text>
<text text-anchor="start" x="309" y="-2324.3" font-family="Times,serif" font-size="14.00">input = {}</text>
<text text-anchor="middle" x="351" y="-2309.3" font-family="Times,serif" font-size="14.00">selectindex = 1</text>
</a>
</g>
</g>
<!-- n32&#45;&gt;n46 -->
<g id="edge59" class="edge"><title>n32&#45;&gt;n46</title>
<path fill="none" stroke="black" d="M492.931,-2405.78C468.126,-2392.36 436.129,-2375.05 408.797,-2360.27"/>
<polygon fill="black" stroke="black" points="410.184,-2357.04 399.723,-2355.36 406.853,-2363.2 410.184,-2357.04"/>
</g>
<!-- n33 -->
<g id="node33" class="node"><title>n33</title>
<g id="a_node33"><a xlink:title="[...e/ubuntu/torch/install/share/lua/5.1/crnn/model/LSTM.lua]:35">
<ellipse fill="none" stroke="black" cx="405" cy="-1924" rx="133.465" ry="37.4533"/>
<text text-anchor="middle" x="405" y="-1935.3" font-family="Times,serif" font-size="14.00">Node33</text>
<text text-anchor="start" x="318.5" y="-1920.3" font-family="Times,serif" font-size="14.00">module = nn.CAddTable</text>
<text text-anchor="middle" x="405" y="-1905.3" font-family="Times,serif" font-size="14.00">mapindex = {Node36,Node37}</text>
</a>
</g>
</g>
<!-- n33&#45;&gt;n27 -->
<g id="edge39" class="edge"><title>n33&#45;&gt;n27</title>
<path fill="none" stroke="black" d="M351.17,-1889.48C332.279,-1877.72 311.221,-1864.61 292.94,-1853.23"/>
<polygon fill="black" stroke="black" points="294.55,-1850.11 284.211,-1847.79 290.85,-1856.05 294.55,-1850.11"/>
</g>
<!-- n33&#45;&gt;n28 -->
<g id="edge40" class="edge"><title>n33&#45;&gt;n28</title>
<path fill="none" stroke="black" d="M422.968,-1886.7C427.468,-1877.61 432.285,-1867.87 436.75,-1858.85"/>
<polygon fill="black" stroke="black" points="439.948,-1860.28 441.247,-1849.77 433.674,-1857.18 439.948,-1860.28"/>
</g>
<!-- n34 -->
<g id="node34" class="node"><title>n34</title>
<g id="a_node34"><a xlink:title="[...e/ubuntu/torch/install/share/lua/5.1/crnn/model/LSTM.lua]:35">
<ellipse fill="none" stroke="black" cx="629" cy="-1026" rx="133.465" ry="37.4533"/>
<text text-anchor="middle" x="629" y="-1037.3" font-family="Times,serif" font-size="14.00">Node34</text>
<text text-anchor="start" x="542.5" y="-1022.3" font-family="Times,serif" font-size="14.00">module = nn.CAddTable</text>
<text text-anchor="middle" x="629" y="-1007.3" font-family="Times,serif" font-size="14.00">mapindex = {Node38,Node39}</text>
</a>
</g>
</g>
<!-- n34&#45;&gt;n30 -->
<g id="edge42" class="edge"><title>n34&#45;&gt;n30</title>
<path fill="none" stroke="black" d="M608.832,-988.698C603.728,-979.51 598.26,-969.667 593.204,-960.567"/>
<polygon fill="black" stroke="black" points="596.231,-958.809 588.315,-951.767 590.112,-962.208 596.231,-958.809"/>
</g>
<!-- n34&#45;&gt;n31 -->
<g id="edge43" class="edge"><title>n34&#45;&gt;n31</title>
<path fill="none" stroke="black" d="M680.202,-991.207C697.692,-979.663 717.108,-966.849 734.067,-955.656"/>
<polygon fill="black" stroke="black" points="736.27,-958.396 742.688,-949.966 732.414,-952.553 736.27,-958.396"/>
</g>
<!-- n35 -->
<g id="node35" class="node"><title>n35</title>
<g id="a_node35"><a xlink:title="[[C]]:&#45;1">
<ellipse fill="none" stroke="black" cx="534" cy="-2519" rx="51.99" ry="26.7407"/>
<text text-anchor="middle" x="534" y="-2522.8" font-family="Times,serif" font-size="14.00">Node35</text>
<text text-anchor="middle" x="534" y="-2507.8" font-family="Times,serif" font-size="14.00">input = {}</text>
</a>
</g>
</g>
<!-- n35&#45;&gt;n32 -->
<g id="edge44" class="edge"><title>n35&#45;&gt;n32</title>
<path fill="none" stroke="black" d="M534,-2492.07C534,-2484 534,-2474.94 534,-2466.3"/>
<polygon fill="black" stroke="black" points="537.5,-2466.05 534,-2456.05 530.5,-2466.05 537.5,-2466.05"/>
</g>
<!-- n36 -->
<g id="node36" class="node"><title>n36</title>
<g id="a_node36"><a xlink:title="[...e/ubuntu/torch/install/share/lua/5.1/crnn/model/LSTM.lua]:33">
<ellipse fill="yellow" stroke="black" cx="283" cy="-2025" rx="133.465" ry="26.7407"/>
<text text-anchor="middle" x="283" y="-2028.8" font-family="Times,serif" font-size="14.00">i2h[1] (36)</text>
<text text-anchor="middle" x="283" y="-2013.8" font-family="Times,serif" font-size="14.00">module = nn.Linear(65 &#45;&gt; 512)</text>
</a>
</g>
</g>
<!-- n36&#45;&gt;n33 -->
<g id="edge45" class="edge"><title>n36&#45;&gt;n33</title>
<path fill="none" stroke="black" d="M314.101,-1998.76C326.376,-1988.8 340.797,-1977.1 354.491,-1965.99"/>
<polygon fill="black" stroke="black" points="356.888,-1968.55 362.448,-1959.53 352.478,-1963.11 356.888,-1968.55"/>
</g>
<!-- n37 -->
<g id="node37" class="node"><title>n37</title>
<g id="a_node37"><a xlink:title="[...e/ubuntu/torch/install/share/lua/5.1/crnn/model/LSTM.lua]:34">
<ellipse fill="green" stroke="black" cx="573" cy="-2025" rx="138.389" ry="26.7407"/>
<text text-anchor="middle" x="573" y="-2028.8" font-family="Times,serif" font-size="14.00">h2h[1] (37)</text>
<text text-anchor="middle" x="573" y="-2013.8" font-family="Times,serif" font-size="14.00">module = nn.Linear(128 &#45;&gt; 512)</text>
</a>
</g>
</g>
<!-- n37&#45;&gt;n33 -->
<g id="edge46" class="edge"><title>n37&#45;&gt;n33</title>
<path fill="none" stroke="black" d="M531.04,-1999.27C512.586,-1988.4 490.485,-1975.38 469.981,-1963.29"/>
<polygon fill="black" stroke="black" points="471.698,-1960.24 461.306,-1958.18 468.144,-1966.27 471.698,-1960.24"/>
</g>
<!-- n38&#45;&gt;n34 -->
<g id="edge47" class="edge"><title>n38&#45;&gt;n34</title>
<path fill="none" stroke="black" d="M580.908,-1100.25C586.669,-1091.47 593.286,-1081.4 599.731,-1071.58"/>
<polygon fill="black" stroke="black" points="602.763,-1073.34 605.326,-1063.06 596.912,-1069.5 602.763,-1073.34"/>
</g>
<!-- n39 -->
<g id="node39" class="node"><title>n39</title>
<g id="a_node39"><a xlink:title="[...e/ubuntu/torch/install/share/lua/5.1/crnn/model/LSTM.lua]:34">
<ellipse fill="green" stroke="black" cx="740" cy="-1329" rx="138.389" ry="26.7407"/>
<text text-anchor="middle" x="740" y="-1332.8" font-family="Times,serif" font-size="14.00">h2h[2] (39)</text>
<text text-anchor="middle" x="740" y="-1317.8" font-family="Times,serif" font-size="14.00">module = nn.Linear(128 &#45;&gt; 512)</text>
</a>
</g>
</g>
<!-- n39&#45;&gt;n34 -->
<g id="edge48" class="edge"><title>n39&#45;&gt;n34</title>
<path fill="none" stroke="black" d="M742.374,-1301.98C745.222,-1257.73 745.877,-1166.19 711,-1100 704.769,-1088.18 695.799,-1077.35 686.058,-1067.87"/>
<polygon fill="black" stroke="black" points="688.213,-1065.09 678.491,-1060.88 683.464,-1070.24 688.213,-1065.09"/>
</g>
<!-- n40 -->
<g id="node40" class="node"><title>n40</title>
<g id="a_node40"><a xlink:title="[...e/ubuntu/torch/install/share/lua/5.1/crnn/model/LSTM.lua]:25">
<ellipse fill="none" stroke="black" cx="305" cy="-2126" rx="82.0366" ry="26.7407"/>
<text text-anchor="middle" x="305" y="-2129.8" font-family="Times,serif" font-size="14.00">Node40</text>
<text text-anchor="middle" x="305" y="-2114.8" font-family="Times,serif" font-size="14.00">module = OneHot</text>
</a>
</g>
</g>
<!-- n40&#45;&gt;n36 -->
<g id="edge49" class="edge"><title>n40&#45;&gt;n36</title>
<path fill="none" stroke="black" d="M299.22,-2098.99C296.713,-2087.71 293.736,-2074.31 291.021,-2062.09"/>
<polygon fill="black" stroke="black" points="294.404,-2061.18 288.818,-2052.18 287.571,-2062.7 294.404,-2061.18"/>
</g>
<!-- n41 -->
<g id="node41" class="node"><title>n41</title>
<g id="a_node41"><a xlink:title="[...e/ubuntu/torch/install/share/lua/5.1/crnn/model/LSTM.lua]:13">
<ellipse fill="blue" stroke="black" cx="534" cy="-2227" rx="94.0678" ry="26.7407"/>
<text text-anchor="middle" x="534" y="-2230.8" font-family="Times,serif" font-size="14.00">prev_c[1] (41)</text>
<text text-anchor="middle" x="534" y="-2215.8" font-family="Times,serif" font-size="14.00">module = nn.Identity</text>
</a>
</g>
</g>
<!-- n41&#45;&gt;n37 -->
<g id="edge50" class="edge"><title>n41&#45;&gt;n37</title>
<path fill="none" stroke="black" d="M539.099,-2199.85C545.96,-2164.67 558.195,-2101.92 565.939,-2062.21"/>
<polygon fill="black" stroke="black" points="569.421,-2062.64 567.9,-2052.15 562.551,-2061.3 569.421,-2062.64"/>
</g>
<!-- n42 -->
<g id="node42" class="node"><title>n42</title>
<g id="a_node42"><a xlink:title="[...e/ubuntu/torch/install/share/lua/5.1/crnn/model/LSTM.lua]:13">
<ellipse fill="blue" stroke="black" cx="740" cy="-2227" rx="94.0678" ry="26.7407"/>
<text text-anchor="middle" x="740" y="-2230.8" font-family="Times,serif" font-size="14.00">prev_c[2] (42)</text>
<text text-anchor="middle" x="740" y="-2215.8" font-family="Times,serif" font-size="14.00">module = nn.Identity</text>
</a>
</g>
</g>
<!-- n42&#45;&gt;n39 -->
<g id="edge52" class="edge"><title>n42&#45;&gt;n39</title>
<path fill="none" stroke="black" d="M740,-2200.11C740,-2161.99 740,-2088.5 740,-2026 740,-2026 740,-2026 740,-1541 740,-1479.54 740,-1408.01 740,-1366"/>
<polygon fill="black" stroke="black" points="743.5,-1365.99 740,-1355.99 736.5,-1365.99 743.5,-1365.99"/>
</g>
<!-- n43 -->
<g id="node43" class="node"><title>n43</title>
<g id="a_node43"><a xlink:title="[...e/ubuntu/torch/install/share/lua/5.1/crnn/model/LSTM.lua]:8">
<ellipse fill="blue" stroke="black" cx="317" cy="-2227" rx="94.0678" ry="26.7407"/>
<text text-anchor="middle" x="317" y="-2230.8" font-family="Times,serif" font-size="14.00">x (43)</text>
<text text-anchor="middle" x="317" y="-2215.8" font-family="Times,serif" font-size="14.00">module = nn.Identity</text>
</a>
</g>
</g>
<!-- n43&#45;&gt;n40 -->
<g id="edge53" class="edge"><title>n43&#45;&gt;n40</title>
<path fill="none" stroke="black" d="M313.847,-2199.99C312.494,-2188.82 310.889,-2175.58 309.42,-2163.46"/>
<polygon fill="black" stroke="black" points="312.851,-2162.69 308.173,-2153.18 305.902,-2163.53 312.851,-2162.69"/>
</g>
<!-- n44&#45;&gt;n41 -->
<g id="edge54" class="edge"><title>n44&#45;&gt;n41</title>
<path fill="none" stroke="black" d="M534,-2290.42C534,-2281.8 534,-2272.63 534,-2264.04"/>
<polygon fill="black" stroke="black" points="537.5,-2263.92 534,-2253.92 530.5,-2263.92 537.5,-2263.92"/>
</g>
<!-- n45&#45;&gt;n42 -->
<g id="edge55" class="edge"><title>n45&#45;&gt;n42</title>
<path fill="none" stroke="black" d="M725.434,-2290.7C727.461,-2281.97 729.625,-2272.66 731.649,-2263.95"/>
<polygon fill="black" stroke="black" points="735.089,-2264.6 733.943,-2254.07 728.271,-2263.02 735.089,-2264.6"/>
</g>
<!-- n46&#45;&gt;n43 -->
<g id="edge56" class="edge"><title>n46&#45;&gt;n43</title>
<path fill="none" stroke="black" d="M338.629,-2290.98C335.566,-2282.06 332.287,-2272.51 329.231,-2263.61"/>
<polygon fill="black" stroke="black" points="332.458,-2262.23 325.899,-2253.91 325.837,-2264.51 332.458,-2262.23"/>
</g>
</g>
</svg>
