<?xml version="1.0" encoding="UTF-8" standalone="no"?>
<!DOCTYPE svg PUBLIC "-//W3C//DTD SVG 1.1//EN"
 "http://www.w3.org/Graphics/SVG/1.1/DTD/svg11.dtd">
<!-- Generated by graphviz version 2.36.0 (20140111.2315)
 -->
<!-- Title: G Pages: 1 -->
<svg width="264pt" height="355pt"
 viewBox="0.00 0.00 264.00 355.00" xmlns="http://www.w3.org/2000/svg" xmlns:xlink="http://www.w3.org/1999/xlink">
<g id="graph0" class="graph" transform="scale(1 1) rotate(0) translate(4 351)">
<title>G</title>
<polygon fill="white" stroke="none" points="-4,4 -4,-351 260,-351 260,4 -4,4"/>
<text text-anchor="middle" x="128" y="-331.8" font-family="Times,serif" font-size="14.00">kk</text>
<!-- n1 -->
<g id="node1" class="node"><title>n1</title>
<g id="a_node1"><a xlink:title="[stdin]:5">
<ellipse fill="none" stroke="black" cx="128" cy="-117" rx="128.54" ry="26.7407"/>
<text text-anchor="middle" x="128" y="-120.8" font-family="Times,serif" font-size="14.00">linear_module (1)</text>
<text text-anchor="middle" x="128" y="-105.8" font-family="Times,serif" font-size="14.00">module = nn.Linear(10 &#45;&gt; 10)</text>
</a>
</g>
</g>
<!-- n2 -->
<g id="node2" class="node"><title>n2</title>
<g id="a_node2"><a xlink:title="[[C]]:&#45;1">
<ellipse fill="none" stroke="black" cx="128" cy="-27" rx="51.99" ry="26.7407"/>
<text text-anchor="middle" x="128" y="-30.8" font-family="Times,serif" font-size="14.00">Node2</text>
<text text-anchor="middle" x="128" y="-15.8" font-family="Times,serif" font-size="14.00">input = {}</text>
</a>
</g>
</g>
<!-- n1&#45;&gt;n2 -->
<g id="edge1" class="edge"><title>n1&#45;&gt;n2</title>
<path fill="none" stroke="black" d="M128,-90.0731C128,-81.9993 128,-72.9428 128,-64.2961"/>
<polygon fill="black" stroke="black" points="131.5,-64.0457 128,-54.0457 124.5,-64.0458 131.5,-64.0457"/>
</g>
<!-- n3 -->
<g id="node3" class="node"><title>n3</title>
<g id="a_node3"><a xlink:title="[stdin]:4">
<ellipse fill="none" stroke="black" cx="128" cy="-207" rx="94.0678" ry="26.7407"/>
<text text-anchor="middle" x="128" y="-210.8" font-family="Times,serif" font-size="14.00">input_x (3)</text>
<text text-anchor="middle" x="128" y="-195.8" font-family="Times,serif" font-size="14.00">module = nn.Identity</text>
</a>
</g>
</g>
<!-- n3&#45;&gt;n1 -->
<g id="edge2" class="edge"><title>n3&#45;&gt;n1</title>
<path fill="none" stroke="black" d="M128,-180.073C128,-171.999 128,-162.943 128,-154.296"/>
<polygon fill="black" stroke="black" points="131.5,-154.046 128,-144.046 124.5,-154.046 131.5,-154.046"/>
</g>
<!-- n4 -->
<g id="node4" class="node"><title>n4</title>
<g id="a_node4"><a xlink:title="[[C]]:&#45;1">
<ellipse fill="none" stroke="black" cx="128" cy="-297" rx="51.99" ry="26.7407"/>
<text text-anchor="middle" x="128" y="-300.8" font-family="Times,serif" font-size="14.00">Node4</text>
<text text-anchor="middle" x="128" y="-285.8" font-family="Times,serif" font-size="14.00">input = {}</text>
</a>
</g>
</g>
<!-- n4&#45;&gt;n3 -->
<g id="edge3" class="edge"><title>n4&#45;&gt;n3</title>
<path fill="none" stroke="black" d="M128,-270.073C128,-261.999 128,-252.943 128,-244.296"/>
<polygon fill="black" stroke="black" points="131.5,-244.046 128,-234.046 124.5,-244.046 131.5,-244.046"/>
</g>
</g>
</svg>
