<?xml version="1.0" encoding="UTF-8" standalone="no"?>
<!DOCTYPE svg PUBLIC "-//W3C//DTD SVG 1.1//EN"
 "http://www.w3.org/Graphics/SVG/1.1/DTD/svg11.dtd">
<!-- Generated by graphviz version 2.36.0 (20140111.2315)
 -->
<!-- Title: G Pages: 1 -->
<svg width="264pt" height="747pt"
 viewBox="0.00 0.00 264.00 747.00" xmlns="http://www.w3.org/2000/svg" xmlns:xlink="http://www.w3.org/1999/xlink">
<g id="graph0" class="graph" transform="scale(1 1) rotate(0) translate(4 743)">
<title>G</title>
<polygon fill="white" stroke="none" points="-4,4 -4,-743 260,-743 260,4 -4,4"/>
<text text-anchor="middle" x="128" y="-723.8" font-family="Times,serif" font-size="14.00">MLP</text>
<!-- n1 -->
<g id="node1" class="node"><title>n1</title>
<g id="a_node1"><a xlink:title="[[string &quot;&#45;&#45; it is common style to mark inputs with ide...&quot;]]:7">
<ellipse fill="none" stroke="black" cx="128" cy="-160" rx="124.176" ry="48.1667"/>
<text text-anchor="middle" x="128" y="-178.8" font-family="Times,serif" font-size="14.00">Node1</text>
<text text-anchor="start" x="48" y="-163.8" font-family="Times,serif" font-size="14.00">input = {Tensor[10]}</text>
<text text-anchor="start" x="48" y="-148.8" font-family="Times,serif" font-size="14.00">module = nn.Linear(10 &#45;&gt; 1)</text>
<text text-anchor="middle" x="128" y="-133.8" font-family="Times,serif" font-size="14.00">gradOutput = {Tensor[1]}</text>
</a>
</g>
</g>
<!-- n2 -->
<g id="node2" class="node"><title>n2</title>
<g id="a_node2"><a xlink:title="[[C]]:&#45;1">
<ellipse fill="none" stroke="black" cx="128" cy="-38" rx="113.267" ry="37.4533"/>
<text text-anchor="middle" x="128" y="-49.3" font-family="Times,serif" font-size="14.00">Node2</text>
<text text-anchor="start" x="55.5" y="-34.3" font-family="Times,serif" font-size="14.00">input = {Tensor[1]}</text>
<text text-anchor="middle" x="128" y="-19.3" font-family="Times,serif" font-size="14.00">gradOutput = {Tensor[1]}</text>
</a>
</g>
</g>
<!-- n1&#45;&gt;n2 -->
<g id="edge1" class="edge"><title>n1&#45;&gt;n2</title>
<path fill="none" stroke="black" d="M128,-111.573C128,-103.096 128,-94.269 128,-85.8099"/>
<polygon fill="black" stroke="black" points="131.5,-85.7224 128,-75.7224 124.5,-85.7224 131.5,-85.7224"/>
</g>
<!-- n3 -->
<g id="node3" class="node"><title>n3</title>
<g id="a_node3"><a xlink:title="[[string &quot;&#45;&#45; it is common style to mark inputs with ide...&quot;]]:6">
<ellipse fill="none" stroke="black" cx="128" cy="-292" rx="118.13" ry="48.1667"/>
<text text-anchor="middle" x="128" y="-310.8" font-family="Times,serif" font-size="14.00">Node3</text>
<text text-anchor="start" x="52.5" y="-295.8" font-family="Times,serif" font-size="14.00">input = {Tensor[10]}</text>
<text text-anchor="start" x="52.5" y="-280.8" font-family="Times,serif" font-size="14.00">module = nn.Tanh</text>
<text text-anchor="middle" x="128" y="-265.8" font-family="Times,serif" font-size="14.00">gradOutput = {Tensor[10]}</text>
</a>
</g>
</g>
<!-- n3&#45;&gt;n1 -->
<g id="edge2" class="edge"><title>n3&#45;&gt;n1</title>
<path fill="none" stroke="black" d="M128,-243.699C128,-235.544 128,-226.987 128,-218.597"/>
<polygon fill="black" stroke="black" points="131.5,-218.483 128,-208.483 124.5,-218.483 131.5,-218.483"/>
</g>
<!-- n4 -->
<g id="node4" class="node"><title>n4</title>
<g id="a_node4"><a xlink:title="[[string &quot;&#45;&#45; it is common style to mark inputs with ide...&quot;]]:6">
<ellipse fill="none" stroke="black" cx="128" cy="-424" rx="128.54" ry="48.1667"/>
<text text-anchor="middle" x="128" y="-442.8" font-family="Times,serif" font-size="14.00">Node4</text>
<text text-anchor="start" x="45" y="-427.8" font-family="Times,serif" font-size="14.00">input = {Tensor[20]}</text>
<text text-anchor="start" x="45" y="-412.8" font-family="Times,serif" font-size="14.00">module = nn.Linear(20 &#45;&gt; 10)</text>
<text text-anchor="middle" x="128" y="-397.8" font-family="Times,serif" font-size="14.00">gradOutput = {Tensor[10]}</text>
</a>
</g>
</g>
<!-- n4&#45;&gt;n3 -->
<g id="edge3" class="edge"><title>n4&#45;&gt;n3</title>
<path fill="none" stroke="black" d="M128,-375.699C128,-367.544 128,-358.987 128,-350.597"/>
<polygon fill="black" stroke="black" points="131.5,-350.483 128,-340.483 124.5,-350.483 131.5,-350.483"/>
</g>
<!-- n5 -->
<g id="node5" class="node"><title>n5</title>
<g id="a_node5"><a xlink:title="[[string &quot;&#45;&#45; it is common style to mark inputs with ide...&quot;]]:2">
<ellipse fill="none" stroke="black" cx="128" cy="-556" rx="118.13" ry="48.1667"/>
<text text-anchor="middle" x="128" y="-574.8" font-family="Times,serif" font-size="14.00">Node5</text>
<text text-anchor="start" x="52.5" y="-559.8" font-family="Times,serif" font-size="14.00">input = {Tensor[20]}</text>
<text text-anchor="start" x="52.5" y="-544.8" font-family="Times,serif" font-size="14.00">module = nn.Identity</text>
<text text-anchor="middle" x="128" y="-529.8" font-family="Times,serif" font-size="14.00">gradOutput = {Tensor[20]}</text>
</a>
</g>
</g>
<!-- n5&#45;&gt;n4 -->
<g id="edge4" class="edge"><title>n5&#45;&gt;n4</title>
<path fill="none" stroke="black" d="M128,-507.699C128,-499.544 128,-490.987 128,-482.597"/>
<polygon fill="black" stroke="black" points="131.5,-482.483 128,-472.483 124.5,-482.483 131.5,-482.483"/>
</g>
<!-- n6 -->
<g id="node6" class="node"><title>n6</title>
<g id="a_node6"><a xlink:title="[[C]]:&#45;1">
<ellipse fill="none" stroke="black" cx="128" cy="-678" rx="118.13" ry="37.4533"/>
<text text-anchor="middle" x="128" y="-689.3" font-family="Times,serif" font-size="14.00">Node6</text>
<text text-anchor="start" x="52.5" y="-674.3" font-family="Times,serif" font-size="14.00">input = {Tensor[20]}</text>
<text text-anchor="middle" x="128" y="-659.3" font-family="Times,serif" font-size="14.00">gradOutput = {Tensor[20]}</text>
</a>
</g>
</g>
<!-- n6&#45;&gt;n5 -->
<g id="edge5" class="edge"><title>n6&#45;&gt;n5</title>
<path fill="none" stroke="black" d="M128,-640.344C128,-632.219 128,-623.418 128,-614.683"/>
<polygon fill="black" stroke="black" points="131.5,-614.503 128,-604.503 124.5,-614.503 131.5,-614.503"/>
</g>
</g>
</svg>
