<?xml version="1.0" encoding="UTF-8" standalone="no"?>
<!DOCTYPE svg PUBLIC "-//W3C//DTD SVG 1.1//EN"
 "http://www.w3.org/Graphics/SVG/1.1/DTD/svg11.dtd">
<!-- Generated by graphviz version 2.36.0 (20140111.2315)
 -->
<!-- Title: G Pages: 1 -->
<svg width="264pt" height="579pt"
 viewBox="0.00 0.00 264.00 579.00" xmlns="http://www.w3.org/2000/svg" xmlns:xlink="http://www.w3.org/1999/xlink">
<g id="graph0" class="graph" transform="scale(1 1) rotate(0) translate(4 575)">
<title>G</title>
<polygon fill="white" stroke="none" points="-4,4 -4,-575 260,-575 260,4 -4,4"/>
<text text-anchor="middle" x="128" y="-555.8" font-family="Times,serif" font-size="14.00">MyMLPError</text>
<!-- n1 -->
<g id="node1" class="node"><title>n1</title>
<g id="a_node1"><a xlink:title="[[string &quot;&#45;&#45; We need to set debug flag to true...&quot;]]:12">
<ellipse fill="none" stroke="black" cx="128" cy="-117" rx="124.176" ry="26.7407"/>
<text text-anchor="middle" x="128" y="-120.8" font-family="Times,serif" font-size="14.00">output (1)</text>
<text text-anchor="middle" x="128" y="-105.8" font-family="Times,serif" font-size="14.00">module = nn.Linear(10 &#45;&gt; 1)</text>
</a>
</g>
</g>
<!-- n2 -->
<g id="node2" class="node"><title>n2</title>
<g id="a_node2"><a xlink:title="[[C]]:&#45;1">
<ellipse fill="none" stroke="black" cx="128" cy="-27" rx="51.99" ry="26.7407"/>
<text text-anchor="middle" x="128" y="-30.8" font-family="Times,serif" font-size="14.00">Node2</text>
<text text-anchor="middle" x="128" y="-15.8" font-family="Times,serif" font-size="14.00">input = {}</text>
</a>
</g>
</g>
<!-- n1&#45;&gt;n2 -->
<g id="edge1" class="edge"><title>n1&#45;&gt;n2</title>
<path fill="none" stroke="black" d="M128,-90.0731C128,-81.9993 128,-72.9428 128,-64.2961"/>
<polygon fill="black" stroke="black" points="131.5,-64.0457 128,-54.0457 124.5,-64.0458 131.5,-64.0457"/>
</g>
<!-- n3 -->
<g id="node3" class="node"><title>n3</title>
<g id="a_node3"><a xlink:title="[[string &quot;&#45;&#45; We need to set debug flag to true...&quot;]]:11">
<ellipse fill="none" stroke="black" cx="128" cy="-207" rx="96.3112" ry="26.7407"/>
<text text-anchor="middle" x="128" y="-210.8" font-family="Times,serif" font-size="14.00">h2 (3)</text>
<text text-anchor="middle" x="128" y="-195.8" font-family="Times,serif" font-size="14.00">module = nn.Sigmoid</text>
</a>
</g>
</g>
<!-- n3&#45;&gt;n1 -->
<g id="edge2" class="edge"><title>n3&#45;&gt;n1</title>
<path fill="none" stroke="black" d="M128,-180.073C128,-171.999 128,-162.943 128,-154.296"/>
<polygon fill="black" stroke="black" points="131.5,-154.046 128,-144.046 124.5,-154.046 131.5,-154.046"/>
</g>
<!-- n4 -->
<g id="node4" class="node"><title>n4</title>
<g id="a_node4"><a xlink:title="[[string &quot;&#45;&#45; We need to set debug flag to true...&quot;]]:10">
<ellipse fill="red" stroke="black" cx="128" cy="-308" rx="128.54" ry="37.4533"/>
<text text-anchor="middle" x="128" y="-319.3" font-family="Times,serif" font-size="14.00">h1 (4)</text>
<text text-anchor="start" x="45" y="-304.3" font-family="Times,serif" font-size="14.00">input = {Tensor[15]}</text>
<text text-anchor="middle" x="128" y="-289.3" font-family="Times,serif" font-size="14.00">module = nn.Linear(20 &#45;&gt; 10)</text>
</a>
</g>
</g>
<!-- n4&#45;&gt;n3 -->
<g id="edge3" class="edge"><title>n4&#45;&gt;n3</title>
<path fill="none" stroke="black" d="M128,-270.417C128,-261.802 128,-252.626 128,-244.035"/>
<polygon fill="black" stroke="black" points="131.5,-243.924 128,-233.924 124.5,-243.924 131.5,-243.924"/>
</g>
<!-- n5 -->
<g id="node5" class="node"><title>n5</title>
<g id="a_node5"><a xlink:title="[[string &quot;&#45;&#45; We need to set debug flag to true...&quot;]]:6">
<ellipse fill="none" stroke="black" cx="128" cy="-420" rx="94.1301" ry="37.4533"/>
<text text-anchor="middle" x="128" y="-431.3" font-family="Times,serif" font-size="14.00">input (5)</text>
<text text-anchor="start" x="69" y="-416.3" font-family="Times,serif" font-size="14.00">input = {Tensor[15]}</text>
<text text-anchor="middle" x="128" y="-401.3" font-family="Times,serif" font-size="14.00">module = nn.Identity</text>
</a>
</g>
</g>
<!-- n5&#45;&gt;n4 -->
<g id="edge4" class="edge"><title>n5&#45;&gt;n4</title>
<path fill="none" stroke="black" d="M128,-382.372C128,-373.927 128,-364.829 128,-356.011"/>
<polygon fill="black" stroke="black" points="131.5,-355.843 128,-345.844 124.5,-355.844 131.5,-355.843"/>
</g>
<!-- n6 -->
<g id="node6" class="node"><title>n6</title>
<g id="a_node6"><a xlink:title="[[C]]:&#45;1">
<ellipse fill="none" stroke="black" cx="128" cy="-521" rx="94.1301" ry="26.7407"/>
<text text-anchor="middle" x="128" y="-524.8" font-family="Times,serif" font-size="14.00">Node6</text>
<text text-anchor="middle" x="128" y="-509.8" font-family="Times,serif" font-size="14.00">input = {Tensor[15]}</text>
</a>
</g>
</g>
<!-- n6&#45;&gt;n5 -->
<g id="edge5" class="edge"><title>n6&#45;&gt;n5</title>
<path fill="none" stroke="black" d="M128,-493.989C128,-485.914 128,-476.753 128,-467.716"/>
<polygon fill="black" stroke="black" points="131.5,-467.631 128,-457.631 124.5,-467.631 131.5,-467.631"/>
</g>
</g>
</svg>
