<?xml version="1.0" encoding="UTF-8" standalone="no"?>
<!DOCTYPE svg PUBLIC "-//W3C//DTD SVG 1.1//EN"
 "http://www.w3.org/Graphics/SVG/1.1/DTD/svg11.dtd">
<!-- Generated by graphviz version 2.36.0 (20140111.2315)
 -->
<!-- Title: G Pages: 1 -->
<svg width="585pt" height="713pt"
 viewBox="0.00 0.00 585.00 713.00" xmlns="http://www.w3.org/2000/svg" xmlns:xlink="http://www.w3.org/1999/xlink">
<g id="graph0" class="graph" transform="scale(1 1) rotate(0) translate(4 709)">
<title>G</title>
<polygon fill="white" stroke="none" points="-4,4 -4,-709 581,-709 581,4 -4,4"/>
<text text-anchor="middle" x="288.5" y="-689.8" font-family="Times,serif" font-size="14.00">rnn_net3</text>
<!-- n1 -->
<g id="node1" class="node"><title>n1</title>
<g id="a_node1"><a xlink:title="[[string &quot;local function get_rnn2(input_size, rnn_size)...&quot;]]:6">
<ellipse fill="green" stroke="black" cx="212" cy="-128" rx="124.176" ry="37.4533"/>
<text text-anchor="middle" x="212" y="-139.3" font-family="Times,serif" font-size="14.00">rnn_net2 (1)</text>
<text text-anchor="start" x="132" y="-124.3" font-family="Times,serif" font-size="14.00">module = nn.gModule</text>
<text text-anchor="middle" x="212" y="-109.3" font-family="Times,serif" font-size="14.00">mapindex = {Node3,Node4}</text>
</a>
</g>
</g>
<!-- n2 -->
<g id="node2" class="node"><title>n2</title>
<g id="a_node2"><a xlink:title="[[C]]:&#45;1">
<ellipse fill="none" stroke="black" cx="212" cy="-27" rx="51.99" ry="26.7407"/>
<text text-anchor="middle" x="212" y="-30.8" font-family="Times,serif" font-size="14.00">Node2</text>
<text text-anchor="middle" x="212" y="-15.8" font-family="Times,serif" font-size="14.00">input = {}</text>
</a>
</g>
</g>
<!-- n1&#45;&gt;n2 -->
<g id="edge1" class="edge"><title>n1&#45;&gt;n2</title>
<path fill="none" stroke="black" d="M212,-90.4173C212,-81.8023 212,-72.6261 212,-64.0354"/>
<polygon fill="black" stroke="black" points="215.5,-63.9241 212,-53.9242 208.5,-63.9242 215.5,-63.9241"/>
</g>
<!-- n3 -->
<g id="node3" class="node"><title>n3</title>
<g id="a_node3"><a xlink:title="[[string &quot;local function get_rnn2(input_size, rnn_size)...&quot;]]:3">
<ellipse fill="blue" stroke="black" cx="94" cy="-240" rx="94.0678" ry="26.7407"/>
<text text-anchor="middle" x="94" y="-243.8" font-family="Times,serif" font-size="14.00">input2 (3)</text>
<text text-anchor="middle" x="94" y="-228.8" font-family="Times,serif" font-size="14.00">module = nn.Identity</text>
</a>
</g>
</g>
<!-- n3&#45;&gt;n1 -->
<g id="edge2" class="edge"><title>n3&#45;&gt;n1</title>
<path fill="none" stroke="black" d="M120.776,-214.039C134.45,-201.292 151.455,-185.44 167.065,-170.888"/>
<polygon fill="black" stroke="black" points="169.668,-173.247 174.596,-163.868 164.894,-168.127 169.668,-173.247"/>
</g>
<!-- n4 -->
<g id="node4" class="node"><title>n4</title>
<g id="a_node4"><a xlink:title="[[string &quot;local function get_rnn2(input_size, rnn_size)...&quot;]]:5">
<ellipse fill="yellow" stroke="black" cx="330" cy="-240" rx="124.176" ry="37.4533"/>
<text text-anchor="middle" x="330" y="-251.3" font-family="Times,serif" font-size="14.00">rnn_net1 (4)</text>
<text text-anchor="start" x="250" y="-236.3" font-family="Times,serif" font-size="14.00">module = nn.gModule</text>
<text text-anchor="middle" x="330" y="-221.3" font-family="Times,serif" font-size="14.00">mapindex = {Node6,Node7}</text>
</a>
</g>
</g>
<!-- n4&#45;&gt;n1 -->
<g id="edge3" class="edge"><title>n4&#45;&gt;n1</title>
<path fill="none" stroke="black" d="M292.664,-204.195C281.365,-193.662 268.835,-181.982 257.086,-171.029"/>
<polygon fill="black" stroke="black" points="259.199,-168.214 249.498,-163.956 254.426,-173.335 259.199,-168.214"/>
</g>
<!-- n5 -->
<g id="node5" class="node"><title>n5</title>
<g id="a_node5"><a xlink:title="[[C]]:&#45;1&#45;2">
<ellipse fill="none" stroke="black" cx="94" cy="-352" rx="70.5656" ry="37.4533"/>
<text text-anchor="middle" x="94" y="-363.3" font-family="Times,serif" font-size="14.00">Node5</text>
<text text-anchor="start" x="52" y="-348.3" font-family="Times,serif" font-size="14.00">input = {}</text>
<text text-anchor="middle" x="94" y="-333.3" font-family="Times,serif" font-size="14.00">selectindex = 2</text>
</a>
</g>
</g>
<!-- n5&#45;&gt;n3 -->
<g id="edge4" class="edge"><title>n5&#45;&gt;n3</title>
<path fill="none" stroke="black" d="M94,-314.372C94,-302.384 94,-289.08 94,-277.129"/>
<polygon fill="black" stroke="black" points="97.5001,-277.042 94,-267.042 90.5001,-277.042 97.5001,-277.042"/>
</g>
<!-- n6 -->
<g id="node6" class="node"><title>n6</title>
<g id="a_node6"><a xlink:title="[[string &quot;local function get_rnn2(input_size, rnn_size)...&quot;]]:2">
<ellipse fill="blue" stroke="black" cx="277" cy="-352" rx="94.0678" ry="26.7407"/>
<text text-anchor="middle" x="277" y="-355.8" font-family="Times,serif" font-size="14.00">input1 (6)</text>
<text text-anchor="middle" x="277" y="-340.8" font-family="Times,serif" font-size="14.00">module = nn.Identity</text>
</a>
</g>
</g>
<!-- n6&#45;&gt;n4 -->
<g id="edge5" class="edge"><title>n6&#45;&gt;n4</title>
<path fill="none" stroke="black" d="M289.426,-325.21C294.941,-313.764 301.602,-299.94 307.918,-286.831"/>
<polygon fill="black" stroke="black" points="311.247,-287.985 312.435,-277.457 304.941,-284.946 311.247,-287.985"/>
</g>
<!-- n7 -->
<g id="node7" class="node"><title>n7</title>
<g id="a_node7"><a xlink:title="[[string &quot;local function get_rnn2(input_size, rnn_size)...&quot;]]:4">
<ellipse fill="blue" stroke="black" cx="483" cy="-352" rx="94.0678" ry="26.7407"/>
<text text-anchor="middle" x="483" y="-355.8" font-family="Times,serif" font-size="14.00">prev_h (7)</text>
<text text-anchor="middle" x="483" y="-340.8" font-family="Times,serif" font-size="14.00">module = nn.Identity</text>
</a>
</g>
</g>
<!-- n7&#45;&gt;n4 -->
<g id="edge6" class="edge"><title>n7&#45;&gt;n4</title>
<path fill="none" stroke="black" d="M449.424,-326.86C430.708,-313.405 406.925,-296.306 385.518,-280.915"/>
<polygon fill="black" stroke="black" points="387.299,-277.885 377.136,-274.889 383.213,-283.568 387.299,-277.885"/>
</g>
<!-- n8 -->
<g id="node8" class="node"><title>n8</title>
<g id="a_node8"><a xlink:title="[[C]]:&#45;1&#45;mnode">
<ellipse fill="none" stroke="black" cx="277" cy="-565" rx="80.415" ry="26.7407"/>
<text text-anchor="middle" x="277" y="-568.8" font-family="Times,serif" font-size="14.00">Node8</text>
<text text-anchor="middle" x="277" y="-553.8" font-family="Times,serif" font-size="14.00">nSplitOutputs = 3</text>
</a>
</g>
</g>
<!-- n8&#45;&gt;n5 -->
<g id="edge7" class="edge"><title>n8&#45;&gt;n5</title>
<path fill="none" stroke="black" d="M241.986,-540.491C227.233,-529.699 210.411,-516.162 197,-502 166.594,-469.891 138.514,-428.1 119.379,-396.951"/>
<polygon fill="black" stroke="black" points="122.162,-394.79 113.981,-388.058 116.178,-398.422 122.162,-394.79"/>
</g>
<!-- n9 -->
<g id="node9" class="node"><title>n9</title>
<g id="a_node9"><a xlink:title="[[C]]:&#45;1&#45;1">
<ellipse fill="none" stroke="black" cx="277" cy="-464" rx="70.5656" ry="37.4533"/>
<text text-anchor="middle" x="277" y="-475.3" font-family="Times,serif" font-size="14.00">Node9</text>
<text text-anchor="start" x="235" y="-460.3" font-family="Times,serif" font-size="14.00">input = {}</text>
<text text-anchor="middle" x="277" y="-445.3" font-family="Times,serif" font-size="14.00">selectindex = 1</text>
</a>
</g>
</g>
<!-- n8&#45;&gt;n9 -->
<g id="edge11" class="edge"><title>n8&#45;&gt;n9</title>
<path fill="none" stroke="black" d="M277,-537.989C277,-529.914 277,-520.753 277,-511.716"/>
<polygon fill="black" stroke="black" points="280.5,-511.631 277,-501.631 273.5,-511.631 280.5,-511.631"/>
</g>
<!-- n10 -->
<g id="node10" class="node"><title>n10</title>
<g id="a_node10"><a xlink:title="[[C]]:&#45;1&#45;3">
<ellipse fill="none" stroke="black" cx="459" cy="-464" rx="70.5656" ry="37.4533"/>
<text text-anchor="middle" x="459" y="-475.3" font-family="Times,serif" font-size="14.00">Node10</text>
<text text-anchor="start" x="417" y="-460.3" font-family="Times,serif" font-size="14.00">input = {}</text>
<text text-anchor="middle" x="459" y="-445.3" font-family="Times,serif" font-size="14.00">selectindex = 3</text>
</a>
</g>
</g>
<!-- n8&#45;&gt;n10 -->
<g id="edge12" class="edge"><title>n8&#45;&gt;n10</title>
<path fill="none" stroke="black" d="M317.844,-541.782C342.514,-528.363 374.336,-511.053 401.519,-496.267"/>
<polygon fill="black" stroke="black" points="403.431,-499.212 410.543,-491.359 400.086,-493.062 403.431,-499.212"/>
</g>
<!-- n9&#45;&gt;n6 -->
<g id="edge8" class="edge"><title>n9&#45;&gt;n6</title>
<path fill="none" stroke="black" d="M277,-426.372C277,-414.384 277,-401.08 277,-389.129"/>
<polygon fill="black" stroke="black" points="280.5,-389.042 277,-379.042 273.5,-389.042 280.5,-389.042"/>
</g>
<!-- n10&#45;&gt;n7 -->
<g id="edge9" class="edge"><title>n10&#45;&gt;n7</title>
<path fill="none" stroke="black" d="M466.925,-426.677C469.592,-414.455 472.563,-400.836 475.219,-388.664"/>
<polygon fill="black" stroke="black" points="478.649,-389.36 477.361,-378.843 471.81,-387.867 478.649,-389.36"/>
</g>
<!-- n11 -->
<g id="node11" class="node"><title>n11</title>
<g id="a_node11"><a xlink:title="[[C]]:&#45;1">
<ellipse fill="none" stroke="black" cx="277" cy="-655" rx="51.99" ry="26.7407"/>
<text text-anchor="middle" x="277" y="-658.8" font-family="Times,serif" font-size="14.00">Node11</text>
<text text-anchor="middle" x="277" y="-643.8" font-family="Times,serif" font-size="14.00">input = {}</text>
</a>
</g>
</g>
<!-- n11&#45;&gt;n8 -->
<g id="edge10" class="edge"><title>n11&#45;&gt;n8</title>
<path fill="none" stroke="black" d="M277,-628.073C277,-619.999 277,-610.943 277,-602.296"/>
<polygon fill="black" stroke="black" points="280.5,-602.046 277,-592.046 273.5,-602.046 280.5,-602.046"/>
</g>
</g>
</svg>
